<svg xmlns="http://www.w3.org/2000/svg" width="1920" height="1080"><path d="M674,1321L37,1391L1034,1331Z" fill="#587593" stroke="#587593" stroke-width="1.51"/><path d="M341,-256L621,-201L1099,-231Z" fill="#bae2c1" stroke="#bae2c1" stroke-width="1.51"/><path d="M1319,1281L1034,1331L1460,1283Z" fill="#265d9c" stroke="#265d9c" stroke-width="1.51"/><path d="M341,-256L1099,-231L1511,-256Z" fill="#a9d7c7" stroke="#a9d7c7" stroke-width="1.51"/><path d="M1034,1331L37,1391L1882,1374Z" fill="#306894" stroke="#306894" stroke-width="1.51"/><path d="M1460,1283L1034,1331L1882,1374Z" fill="#204e91" stroke="#204e91" stroke-width="1.51"/><path d="M1930,1100L2107,1376L2201,1085Z" fill="#1f3188" stroke="#1f3188" stroke-width="1.51"/><path d="M1511,-256L1684,-260L2206,-311Z" fill="#9c9cb7" stroke="#9c9cb7" stroke-width="1.51"/><path d="M341,-256L1511,-256L2206,-311Z" fill="#a1c0c5" stroke="#a1c0c5" stroke-width="1.51"/><path d="M-46,-262L341,-256L2206,-311Z" fill="#b3dec7" stroke="#b3dec7" stroke-width="1.51"/><path d="M1684,-260L2008,-157L2206,-311Z" fill="#9991af" stroke="#9991af" stroke-width="1.51"/><path d="M2008,-157L2150,5L2206,-311Z" fill="#8d8998" stroke="#8d8998" stroke-width="1.51"/><path d="M2150,5L1990,184L2232,211Z" fill="#748096" stroke="#748096" stroke-width="1.51"/><path d="M2206,-311L2150,5L2232,211Z" fill="#81838e" stroke="#81838e" stroke-width="1.51"/><path d="M2025,670L2128,880L2244,589Z" fill="#275e99" stroke="#275e99" stroke-width="1.51"/><path d="M2118,369L2025,670L2244,589Z" fill="#356c9b" stroke="#356c9b" stroke-width="1.51"/><path d="M2128,880L2201,1085L2244,589Z" fill="#1e4e8e" stroke="#1e4e8e" stroke-width="1.51"/><path d="M2232,211L2118,369L2244,589Z" fill="#487092" stroke="#487092" stroke-width="1.51"/><path d="M1990,184L2118,369L2232,211Z" fill="#617a99" stroke="#617a99" stroke-width="1.51"/><path d="M1924,446L2025,670L2118,369Z" fill="#4273a4" stroke="#4273a4" stroke-width="1.51"/><path d="M2128,880L1930,1100L2201,1085Z" fill="#20408f" stroke="#20408f" stroke-width="1.51"/><path d="M1930,1100L1882,1374L2107,1376Z" fill="#1f2e86" stroke="#1f2e86" stroke-width="1.51"/><path d="M2025,670L1930,895L2128,880Z" fill="#27589f" stroke="#27589f" stroke-width="1.51"/><path d="M1930,895L1930,1100L2128,880Z" fill="#254a9a" stroke="#254a9a" stroke-width="1.51"/><path d="M2008,-157L1990,-33L2150,5Z" fill="#8c8a9c" stroke="#8c8a9c" stroke-width="1.51"/><path d="M1990,-33L1990,184L2150,5Z" fill="#82879d" stroke="#82879d" stroke-width="1.51"/><path d="M1990,184L1924,446L2118,369Z" fill="#597ba4" stroke="#597ba4" stroke-width="1.51"/><path d="M1769,279L1770,360L1924,446Z" fill="#5885ae" stroke="#5885ae" stroke-width="1.51"/><path d="M1769,279L1924,446L1990,184Z" fill="#6082aa" stroke="#6082aa" stroke-width="1.51"/><path d="M1990,-33L1748,-29L1990,184Z" fill="#898ea7" stroke="#898ea7" stroke-width="1.51"/><path d="M1694,614L1930,895L2025,670Z" fill="#2e69ad" stroke="#2e69ad" stroke-width="1.51"/><path d="M1924,446L1694,614L2025,670Z" fill="#3b75ae" stroke="#3b75ae" stroke-width="1.51"/><path d="M1748,-29L1990,-33L2008,-157Z" fill="#9391a7" stroke="#9391a7" stroke-width="1.51"/><path d="M1684,-260L1748,-29L2008,-157Z" fill="#989aac" stroke="#989aac" stroke-width="1.51"/><path d="M1694,614L1705,897L1930,895Z" fill="#2868ad" stroke="#2868ad" stroke-width="1.51"/><path d="M1708,1228L1882,1374L1930,1100Z" fill="#243992" stroke="#243992" stroke-width="1.51"/><path d="M1748,-29L1769,279L1990,184Z" fill="#7d8fab" stroke="#7d8fab" stroke-width="1.51"/><path d="M1770,360L1694,614L1924,446Z" fill="#4781b0" stroke="#4781b0" stroke-width="1.51"/><path d="M1720,1126L1708,1228L1930,1100Z" fill="#26439b" stroke="#26439b" stroke-width="1.51"/><path d="M1930,895L1705,897L1930,1100Z" fill="#2651a2" stroke="#2651a2" stroke-width="1.51"/><path d="M1705,897L1720,1126L1930,1100Z" fill="#264ea0" stroke="#264ea0" stroke-width="1.51"/><path d="M1708,1228L1460,1283L1882,1374Z" fill="#20408e" stroke="#20408e" stroke-width="1.51"/><path d="M341,1319L37,1391L674,1321Z" fill="#727e92" stroke="#727e92" stroke-width="1.51"/><path d="M621,-201L931,-194L1099,-231Z" fill="#addbc2" stroke="#addbc2" stroke-width="1.51"/><path d="M1694,614L1552,838L1705,897Z" fill="#2473b2" stroke="#2473b2" stroke-width="1.51"/><path d="M1684,-260L1487,-29L1748,-29Z" fill="#97a5af" stroke="#97a5af" stroke-width="1.51"/><path d="M1487,-29L1526,267L1748,-29Z" fill="#87a4b1" stroke="#87a4b1" stroke-width="1.51"/><path d="M1748,-29L1526,267L1769,279Z" fill="#7798af" stroke="#7798af" stroke-width="1.51"/><path d="M1487,395L1694,614L1770,360Z" fill="#478bb4" stroke="#478bb4" stroke-width="1.51"/><path d="M1769,279L1526,267L1770,360Z" fill="#5f90b0" stroke="#5f90b0" stroke-width="1.51"/><path d="M1526,267L1487,395L1770,360Z" fill="#5895b4" stroke="#5895b4" stroke-width="1.51"/><path d="M1511,-256L1487,-29L1684,-260Z" fill="#9badb6" stroke="#9badb6" stroke-width="1.51"/><path d="M1705,897L1578,1170L1720,1126Z" fill="#2553a3" stroke="#2553a3" stroke-width="1.51"/><path d="M1473,597L1552,838L1694,614Z" fill="#2b81b7" stroke="#2b81b7" stroke-width="1.51"/><path d="M1487,395L1473,597L1694,614Z" fill="#388eb9" stroke="#388eb9" stroke-width="1.51"/><path d="M1552,838L1578,1170L1705,897Z" fill="#2260a9" stroke="#2260a9" stroke-width="1.51"/><path d="M1578,1170L1460,1283L1708,1228Z" fill="#254b9b" stroke="#254b9b" stroke-width="1.51"/><path d="M1578,1170L1708,1228L1720,1126Z" fill="#26499e" stroke="#26499e" stroke-width="1.51"/><path d="M1334,7L1287,146L1487,-29Z" fill="#8cb7b8" stroke="#8cb7b8" stroke-width="1.51"/><path d="M1099,-231L1324,-159L1511,-256Z" fill="#9fc3c2" stroke="#9fc3c2" stroke-width="1.51"/><path d="M1487,-29L1287,146L1526,267Z" fill="#81aeb7" stroke="#81aeb7" stroke-width="1.51"/><path d="M1221,1136L1460,1283L1578,1170Z" fill="#2a59a6" stroke="#2a59a6" stroke-width="1.51"/><path d="M1325,917L1221,1136L1578,1170Z" fill="#2868ad" stroke="#2868ad" stroke-width="1.51"/><path d="M1552,838L1325,917L1578,1170Z" fill="#2369ae" stroke="#2369ae" stroke-width="1.51"/><path d="M1221,1136L1319,1281L1460,1283Z" fill="#295da4" stroke="#295da4" stroke-width="1.51"/><path d="M1324,-159L1487,-29L1511,-256Z" fill="#9cb6b8" stroke="#9cb6b8" stroke-width="1.51"/><path d="M1473,597L1233,691L1552,838Z" fill="#278bbc" stroke="#278bbc" stroke-width="1.51"/><path d="M1233,691L1325,917L1552,838Z" fill="#2184ba" stroke="#2184ba" stroke-width="1.51"/><path d="M1287,146L1487,395L1526,267Z" fill="#66a6b9" stroke="#66a6b9" stroke-width="1.51"/><path d="M1220,394L1473,597L1487,395Z" fill="#459fbd" stroke="#459fbd" stroke-width="1.51"/><path d="M1287,146L1220,394L1487,395Z" fill="#5cabbd" stroke="#5cabbd" stroke-width="1.51"/><path d="M1324,-159L1334,7L1487,-29Z" fill="#96b9b7" stroke="#96b9b7" stroke-width="1.51"/><path d="M1220,394L1233,691L1473,597Z" fill="#32a0c2" stroke="#32a0c2" stroke-width="1.51"/><path d="M1135,195L1147,370L1220,394Z" fill="#5eb6bf" stroke="#5eb6bf" stroke-width="1.51"/><path d="M1135,195L1220,394L1287,146Z" fill="#6eb7be" stroke="#6eb7be" stroke-width="1.51"/><path d="M1233,691L989,817L1325,917Z" fill="#2791be" stroke="#2791be" stroke-width="1.51"/><path d="M1324,-159L1086,7L1334,7Z" fill="#97c3bb" stroke="#97c3bb" stroke-width="1.51"/><path d="M1086,7L1287,146L1334,7Z" fill="#8dc0bb" stroke="#8dc0bb" stroke-width="1.51"/><path d="M1220,394L1033,630L1233,691Z" fill="#37a8c3" stroke="#37a8c3" stroke-width="1.51"/><path d="M1099,-231L1086,7L1324,-159Z" fill="#a1cabc" stroke="#a1cabc" stroke-width="1.51"/><path d="M1024,1106L1221,1136L1325,917Z" fill="#2e75b1" stroke="#2e75b1" stroke-width="1.51"/><path d="M989,817L1024,1106L1325,917Z" fill="#2f85b7" stroke="#2f85b7" stroke-width="1.51"/><path d="M1221,1136L1034,1331L1319,1281Z" fill="#2f64a3" stroke="#2f64a3" stroke-width="1.51"/><path d="M1147,370L1033,630L1220,394Z" fill="#49b0c2" stroke="#49b0c2" stroke-width="1.51"/><path d="M1086,7L1135,195L1287,146Z" fill="#87c2bc" stroke="#87c2bc" stroke-width="1.51"/><path d="M1024,1106L1034,1331L1221,1136Z" fill="#386eac" stroke="#386eac" stroke-width="1.51"/><path d="M1033,630L989,817L1233,691Z" fill="#30a0c2" stroke="#30a0c2" stroke-width="1.51"/><path d="M893,1280L674,1321L1034,1331Z" fill="#406f9c" stroke="#406f9c" stroke-width="1.51"/><path d="M931,-194L905,-69L1086,7Z" fill="#a2d5bc" stroke="#a2d5bc" stroke-width="1.51"/><path d="M931,-194L1086,7L1099,-231Z" fill="#a4d2bd" stroke="#a4d2bd" stroke-width="1.51"/><path d="M786,444L1033,630L1147,370Z" fill="#4bb7c3" stroke="#4bb7c3" stroke-width="1.51"/><path d="M1135,195L803,275L1147,370Z" fill="#6cc0bf" stroke="#6cc0bf" stroke-width="1.51"/><path d="M803,275L786,444L1147,370Z" fill="#63c0c0" stroke="#63c0c0" stroke-width="1.51"/><path d="M989,817L863,1019L1024,1106Z" fill="#3889b6" stroke="#3889b6" stroke-width="1.51"/><path d="M1086,7L803,275L1135,195Z" fill="#84c9bd" stroke="#84c9bd" stroke-width="1.51"/><path d="M786,444L867,643L1033,630Z" fill="#48b5c3" stroke="#48b5c3" stroke-width="1.51"/><path d="M1024,1106L893,1280L1034,1331Z" fill="#3a70a7" stroke="#3a70a7" stroke-width="1.51"/><path d="M905,-69L803,275L1086,7Z" fill="#94d1bc" stroke="#94d1bc" stroke-width="1.51"/><path d="M895,819L863,1019L989,817Z" fill="#3c96bb" stroke="#3c96bb" stroke-width="1.51"/><path d="M867,643L895,819L989,817Z" fill="#3aa5c2" stroke="#3aa5c2" stroke-width="1.51"/><path d="M867,643L989,817L1033,630Z" fill="#37a8c3" stroke="#37a8c3" stroke-width="1.51"/><path d="M863,1019L893,1280L1024,1106Z" fill="#417baf" stroke="#417baf" stroke-width="1.51"/><path d="M863,1019L674,1321L893,1280Z" fill="#4e77aa" stroke="#4e77aa" stroke-width="1.51"/><path d="M646,-60L803,275L905,-69Z" fill="#a0d7b9" stroke="#a0d7b9" stroke-width="1.51"/><path d="M621,-201L905,-69L931,-194Z" fill="#b0dcbc" stroke="#b0dcbc" stroke-width="1.51"/><path d="M646,-60L622,259L803,275Z" fill="#97d5ba" stroke="#97d5ba" stroke-width="1.51"/><path d="M633,1010L674,1321L863,1019Z" fill="#5583ae" stroke="#5583ae" stroke-width="1.51"/><path d="M867,643L702,814L895,819Z" fill="#46a8c0" stroke="#46a8c0" stroke-width="1.51"/><path d="M702,814L863,1019L895,819Z" fill="#4899b9" stroke="#4899b9" stroke-width="1.51"/><path d="M621,-201L646,-60L905,-69Z" fill="#b3deb8" stroke="#b3deb8" stroke-width="1.51"/><path d="M702,814L633,1010L863,1019Z" fill="#5194b6" stroke="#5194b6" stroke-width="1.51"/><path d="M786,444L647,710L867,643Z" fill="#54b7c1" stroke="#54b7c1" stroke-width="1.51"/><path d="M647,710L702,814L867,643Z" fill="#52aec0" stroke="#52aec0" stroke-width="1.51"/><path d="M571,482L647,710L786,444Z" fill="#60bfc0" stroke="#60bfc0" stroke-width="1.51"/><path d="M622,259L786,444L803,275Z" fill="#76c8bd" stroke="#76c8bd" stroke-width="1.51"/><path d="M622,259L571,482L786,444Z" fill="#74c8bd" stroke="#74c8bd" stroke-width="1.51"/><path d="M419,192L622,259L646,-60Z" fill="#a7dcb8" stroke="#a7dcb8" stroke-width="1.51"/><path d="M571,482L492,683L647,710Z" fill="#6abdbf" stroke="#6abdbf" stroke-width="1.51"/><path d="M633,1010L421,1026L674,1321Z" fill="#6488ac" stroke="#6488ac" stroke-width="1.51"/><path d="M421,1026L341,1319L674,1321Z" fill="#6e82a5" stroke="#6e82a5" stroke-width="1.51"/><path d="M376,806L633,1010L702,814Z" fill="#64a3b7" stroke="#64a3b7" stroke-width="1.51"/><path d="M647,710L492,683L702,814Z" fill="#5eb1be" stroke="#5eb1be" stroke-width="1.51"/><path d="M492,683L376,806L702,814Z" fill="#6ab2bd" stroke="#6ab2bd" stroke-width="1.51"/><path d="M432,372L571,482L622,259Z" fill="#84cebb" stroke="#84cebb" stroke-width="1.51"/><path d="M376,806L421,1026L633,1010Z" fill="#709db3" stroke="#709db3" stroke-width="1.51"/><path d="M138,1336L37,1391L341,1319Z" fill="#7e8291" stroke="#7e8291" stroke-width="1.51"/><path d="M621,-201L335,-76L646,-60Z" fill="#c3e6b5" stroke="#c3e6b5" stroke-width="1.51"/><path d="M335,-76L419,192L646,-60Z" fill="#bee5b6" stroke="#bee5b6" stroke-width="1.51"/><path d="M341,-256L335,-76L621,-201Z" fill="#d0ecba" stroke="#d0ecba" stroke-width="1.51"/><path d="M419,192L432,372L622,259Z" fill="#98d6b9" stroke="#98d6b9" stroke-width="1.51"/><path d="M432,372L492,683L571,482Z" fill="#7ac8be" stroke="#7ac8be" stroke-width="1.51"/><path d="M150,647L376,806L492,683Z" fill="#84bebc" stroke="#84bebc" stroke-width="1.51"/><path d="M242,414L150,647L492,683Z" fill="#8eccbc" stroke="#8eccbc" stroke-width="1.51"/><path d="M432,372L242,414L492,683Z" fill="#8acebc" stroke="#8acebc" stroke-width="1.51"/><path d="M265,-195L335,-76L341,-256Z" fill="#dbf1b8" stroke="#dbf1b8" stroke-width="1.51"/><path d="M150,647L219,794L376,806Z" fill="#8bbebb" stroke="#8bbebb" stroke-width="1.51"/><path d="M219,794L174,1027L376,806Z" fill="#88aeb5" stroke="#88aeb5" stroke-width="1.51"/><path d="M129,289L242,414L419,192Z" fill="#abddb7" stroke="#abddb7" stroke-width="1.51"/><path d="M335,-76L195,-27L419,192Z" fill="#ccebb4" stroke="#ccebb4" stroke-width="1.51"/><path d="M376,806L174,1027L421,1026Z" fill="#81a3b2" stroke="#81a3b2" stroke-width="1.51"/><path d="M174,1027L341,1319L421,1026Z" fill="#8391aa" stroke="#8391aa" stroke-width="1.51"/><path d="M419,192L242,414L432,372Z" fill="#9ed8b8" stroke="#9ed8b8" stroke-width="1.51"/><path d="M195,-27L129,289L419,192Z" fill="#c3e6b5" stroke="#c3e6b5" stroke-width="1.51"/><path d="M174,1027L138,1336L341,1319Z" fill="#8689a2" stroke="#8689a2" stroke-width="1.51"/><path d="M-46,-262L265,-195L341,-256Z" fill="#e6f5bc" stroke="#e6f5bc" stroke-width="1.51"/><path d="M265,-195L195,-27L335,-76Z" fill="#dbf1b3" stroke="#dbf1b3" stroke-width="1.51"/><path d="M43,1070L138,1336L174,1027Z" fill="#8f93a9" stroke="#8f93a9" stroke-width="1.51"/><path d="M-16,208L129,289L195,-27Z" fill="#caeab4" stroke="#caeab4" stroke-width="1.51"/><path d="M39,839L174,1027L219,794Z" fill="#8fafb5" stroke="#8fafb5" stroke-width="1.51"/><path d="M37,623L150,647L242,414Z" fill="#99d1bc" stroke="#99d1bc" stroke-width="1.51"/><path d="M-46,-262L195,-27L265,-195Z" fill="#e5f5b6" stroke="#e5f5b6" stroke-width="1.51"/><path d="M129,289L37,623L242,414Z" fill="#a4d8ba" stroke="#a4d8ba" stroke-width="1.51"/><path d="M-111,471L37,623L129,289Z" fill="#aadaba" stroke="#aadaba" stroke-width="1.51"/><path d="M-99,8L-16,208L195,-27Z" fill="#dbf1b3" stroke="#dbf1b3" stroke-width="1.51"/><path d="M150,647L39,839L219,794Z" fill="#92bfbb" stroke="#92bfbb" stroke-width="1.51"/><path d="M39,839L43,1070L174,1027Z" fill="#91a5b0" stroke="#91a5b0" stroke-width="1.51"/><path d="M-46,-262L-99,8L195,-27Z" fill="#e9f6b1" stroke="#e9f6b1" stroke-width="1.51"/><path d="M43,1070L37,1391L138,1336Z" fill="#8b899d" stroke="#8b899d" stroke-width="1.51"/><path d="M37,623L39,839L150,647Z" fill="#98c5bb" stroke="#98c5bb" stroke-width="1.51"/><path d="M-16,208L-111,471L129,289Z" fill="#b8e2b6" stroke="#b8e2b6" stroke-width="1.51"/><path d="M-231,-162L-99,8L-46,-262Z" fill="#f1fab9" stroke="#f1fab9" stroke-width="1.51"/><path d="M-243,1082L-309,1285L37,1391Z" fill="#958da6" stroke="#958da6" stroke-width="1.51"/><path d="M37,623L-301,654L39,839Z" fill="#a0c8bd" stroke="#a0c8bd" stroke-width="1.51"/><path d="M-301,654L-282,931L39,839Z" fill="#9fbec1" stroke="#9fbec1" stroke-width="1.51"/><path d="M39,839L-282,931L43,1070Z" fill="#9aacb3" stroke="#9aacb3" stroke-width="1.51"/><path d="M-282,931L-243,1082L43,1070Z" fill="#9ba3b5" stroke="#9ba3b5" stroke-width="1.51"/><path d="M-243,1082L37,1391L43,1070Z" fill="#9792a8" stroke="#9792a8" stroke-width="1.51"/><path d="M-111,471L-301,654L37,623Z" fill="#a6d4c1" stroke="#a6d4c1" stroke-width="1.51"/><path d="M-237,412L-111,471L-16,208Z" fill="#b8e1bd" stroke="#b8e1bd" stroke-width="1.51"/><path d="M-295,214L-237,412L-16,208Z" fill="#c4e7bf" stroke="#c4e7bf" stroke-width="1.51"/><path d="M-99,8L-212,16L-16,208Z" fill="#def3b8" stroke="#def3b8" stroke-width="1.51"/><path d="M-212,16L-295,214L-16,208Z" fill="#d7efbc" stroke="#d7efbc" stroke-width="1.51"/><path d="M-237,412L-301,654L-111,471Z" fill="#acdac6" stroke="#acdac6" stroke-width="1.51"/><path d="M-231,-162L-212,16L-99,8Z" fill="#ebf7ba" stroke="#ebf7ba" stroke-width="1.51"/><path d="M-231,-162L-295,214L-212,16Z" fill="#e7f6bf" stroke="#e7f6bf" stroke-width="1.51"/><path d="M-295,214L-301,654L-237,412Z" fill="#b6dfc7" stroke="#b6dfc7" stroke-width="1.51"/><path d="M-282,931L-309,1285L-243,1082Z" fill="#9d9cb8" stroke="#9d9cb8" stroke-width="1.51"/><path d="M-301,654L-309,1285L-282,931Z" fill="#9eadc0" stroke="#9eadc0" stroke-width="1.51"/></svg>
