<svg xmlns="http://www.w3.org/2000/svg" width="1920" height="1080"><path d="M233,1318L-201,1329L708,1332Z" fill="#6e6e6e" stroke="#6e6e6e" stroke-width="1.51"/><path d="M114,-258L561,-230L933,-242Z" fill="#e2e2e2" stroke="#e2e2e2" stroke-width="1.51"/><path d="M933,-242L1045,-245L1204,-257Z" fill="#c1c1c1" stroke="#c1c1c1" stroke-width="1.51"/><path d="M114,-258L933,-242L1204,-257Z" fill="#d6d6d6" stroke="#d6d6d6" stroke-width="1.51"/><path d="M1033,1322L886,1320L1207,1345Z" fill="#474747" stroke="#474747" stroke-width="1.51"/><path d="M886,1320L708,1332L1207,1345Z" fill="#4d4d4d" stroke="#4d4d4d" stroke-width="1.51"/><path d="M1431,-248L1583,-218L1835,-226Z" fill="#9d9d9d" stroke="#9d9d9d" stroke-width="1.51"/><path d="M1815,1290L1469,1289L1923,1331Z" fill="#232323" stroke="#232323" stroke-width="1.51"/><path d="M1469,1289L1207,1345L1923,1331Z" fill="#2f2f2f" stroke="#2f2f2f" stroke-width="1.51"/><path d="M1204,-257L1431,-248L2029,-238Z" fill="#a3a3a3" stroke="#a3a3a3" stroke-width="1.51"/><path d="M1431,-248L1835,-226L2029,-238Z" fill="#919191" stroke="#919191" stroke-width="1.51"/><path d="M1835,-226L1912,-217L2029,-238Z" fill="#838383" stroke="#838383" stroke-width="1.51"/><path d="M2048,114L2033,215L2079,399Z" fill="#666666" stroke="#666666" stroke-width="1.51"/><path d="M2083,1010L1939,1086L2085,1195Z" fill="#222222" stroke="#222222" stroke-width="1.51"/><path d="M2048,114L2079,399L2131,484Z" fill="#5f5f5f" stroke="#5f5f5f" stroke-width="1.51"/><path d="M2078,-95L2048,114L2131,484Z" fill="#686868" stroke="#686868" stroke-width="1.51"/><path d="M1893,688L1981,813L2136,710Z" fill="#434343" stroke="#434343" stroke-width="1.51"/><path d="M1907,591L1893,688L2136,710Z" fill="#4a4a4a" stroke="#4a4a4a" stroke-width="1.51"/><path d="M1981,813L2072,873L2136,710Z" fill="#3b3b3b" stroke="#3b3b3b" stroke-width="1.51"/><path d="M2131,484L1907,591L2136,710Z" fill="#4b4b4b" stroke="#4b4b4b" stroke-width="1.51"/><path d="M2072,873L2083,1010L2136,710Z" fill="#343434" stroke="#343434" stroke-width="1.51"/><path d="M2083,1010L2085,1195L2136,710Z" fill="#2c2c2c" stroke="#2c2c2c" stroke-width="1.51"/><path d="M2079,399L1943,391L2131,484Z" fill="#595959" stroke="#595959" stroke-width="1.51"/><path d="M1943,391L1907,591L2131,484Z" fill="#575757" stroke="#575757" stroke-width="1.51"/><path d="M1890,-6L1893,39L2048,114Z" fill="#787878" stroke="#787878" stroke-width="1.51"/><path d="M1981,813L1899,1017L2072,873Z" fill="#383838" stroke="#383838" stroke-width="1.51"/><path d="M2029,-238L1912,-217L2078,-95Z" fill="#7e7e7e" stroke="#7e7e7e" stroke-width="1.51"/><path d="M1890,-6L2048,114L2078,-95Z" fill="#767676" stroke="#767676" stroke-width="1.51"/><path d="M2033,215L1943,391L2079,399Z" fill="#626262" stroke="#626262" stroke-width="1.51"/><path d="M2072,873L1899,1017L2083,1010Z" fill="#313131" stroke="#313131" stroke-width="1.51"/><path d="M1939,1086L2043,1294L2085,1195Z" fill="#1a1a1a" stroke="#1a1a1a" stroke-width="1.51"/><path d="M1899,1017L1939,1086L2083,1010Z" fill="#2c2c2c" stroke="#2c2c2c" stroke-width="1.51"/><path d="M1909,233L1943,391L2033,215Z" fill="#696969" stroke="#696969" stroke-width="1.51"/><path d="M1912,-217L1890,-6L2078,-95Z" fill="#7e7e7e" stroke="#7e7e7e" stroke-width="1.51"/><path d="M1939,1086L1923,1331L2043,1294Z" fill="#1a1a1a" stroke="#1a1a1a" stroke-width="1.51"/><path d="M1909,233L2033,215L2048,114Z" fill="#6c6c6c" stroke="#6c6c6c" stroke-width="1.51"/><path d="M1893,39L1909,233L2048,114Z" fill="#737373" stroke="#737373" stroke-width="1.51"/><path d="M1815,1290L1923,1331L1939,1086Z" fill="#1e1e1e" stroke="#1e1e1e" stroke-width="1.51"/><path d="M1838,832L1899,1017L1981,813Z" fill="#3d3d3d" stroke="#3d3d3d" stroke-width="1.51"/><path d="M1893,39L1832,79L1909,233Z" fill="#787878" stroke="#787878" stroke-width="1.51"/><path d="M1772,1188L1815,1290L1939,1086Z" fill="#242424" stroke="#242424" stroke-width="1.51"/><path d="M1833,389L1907,591L1943,391Z" fill="#5f5f5f" stroke="#5f5f5f" stroke-width="1.51"/><path d="M1893,688L1838,832L1981,813Z" fill="#464646" stroke="#464646" stroke-width="1.51"/><path d="M1609,1242L1469,1289L1815,1290Z" fill="#2d2d2d" stroke="#2d2d2d" stroke-width="1.51"/><path d="M1835,-226L1802,-15L1890,-6Z" fill="#848484" stroke="#848484" stroke-width="1.51"/><path d="M1833,389L1764,563L1907,591Z" fill="#5f5f5f" stroke="#5f5f5f" stroke-width="1.51"/><path d="M1835,-226L1890,-6L1912,-217Z" fill="#848484" stroke="#848484" stroke-width="1.51"/><path d="M1795,1035L1772,1188L1939,1086Z" fill="#2c2c2c" stroke="#2c2c2c" stroke-width="1.51"/><path d="M1909,233L1833,389L1943,391Z" fill="#696969" stroke="#696969" stroke-width="1.51"/><path d="M1899,1017L1795,1035L1939,1086Z" fill="#303030" stroke="#303030" stroke-width="1.51"/><path d="M1791,702L1838,832L1893,688Z" fill="#4c4c4c" stroke="#4c4c4c" stroke-width="1.51"/><path d="M1838,832L1795,1035L1899,1017Z" fill="#3b3b3b" stroke="#3b3b3b" stroke-width="1.51"/><path d="M1770,207L1833,389L1909,233Z" fill="#717171" stroke="#717171" stroke-width="1.51"/><path d="M1832,79L1770,207L1909,233Z" fill="#787878" stroke="#787878" stroke-width="1.51"/><path d="M1791,702L1893,688L1907,591Z" fill="#515151" stroke="#515151" stroke-width="1.51"/><path d="M1764,563L1791,702L1907,591Z" fill="#575757" stroke="#575757" stroke-width="1.51"/><path d="M1890,-6L1802,-15L1893,39Z" fill="#7e7e7e" stroke="#7e7e7e" stroke-width="1.51"/><path d="M1802,-15L1832,79L1893,39Z" fill="#7e7e7e" stroke="#7e7e7e" stroke-width="1.51"/><path d="M1770,207L1633,375L1833,389Z" fill="#767676" stroke="#767676" stroke-width="1.51"/><path d="M1633,375L1764,563L1833,389Z" fill="#6c6c6c" stroke="#6c6c6c" stroke-width="1.51"/><path d="M1683,-49L1802,-15L1835,-226Z" fill="#8b8b8b" stroke="#8b8b8b" stroke-width="1.51"/><path d="M1583,-218L1683,-49L1835,-226Z" fill="#939393" stroke="#939393" stroke-width="1.51"/><path d="M1671,889L1795,1035L1838,832Z" fill="#444444" stroke="#444444" stroke-width="1.51"/><path d="M1791,702L1671,889L1838,832Z" fill="#4d4d4d" stroke="#4d4d4d" stroke-width="1.51"/><path d="M1634,128L1770,207L1832,79Z" fill="#828282" stroke="#828282" stroke-width="1.51"/><path d="M1802,-15L1634,128L1832,79Z" fill="#858585" stroke="#858585" stroke-width="1.51"/><path d="M1633,375L1616,532L1764,563Z" fill="#6e6e6e" stroke="#6e6e6e" stroke-width="1.51"/><path d="M1674,1036L1772,1188L1795,1035Z" fill="#343434" stroke="#343434" stroke-width="1.51"/><path d="M1671,889L1674,1036L1795,1035Z" fill="#424242" stroke="#424242" stroke-width="1.51"/><path d="M1683,-49L1634,128L1802,-15Z" fill="#8b8b8b" stroke="#8b8b8b" stroke-width="1.51"/><path d="M1772,1188L1667,1184L1815,1290Z" fill="#282828" stroke="#282828" stroke-width="1.51"/><path d="M1667,1184L1609,1242L1815,1290Z" fill="#2a2a2a" stroke="#2a2a2a" stroke-width="1.51"/><path d="M1674,1036L1667,1184L1772,1188Z" fill="#333333" stroke="#333333" stroke-width="1.51"/><path d="M1764,563L1614,676L1791,702Z" fill="#5d5d5d" stroke="#5d5d5d" stroke-width="1.51"/><path d="M1614,676L1671,889L1791,702Z" fill="#575757" stroke="#575757" stroke-width="1.51"/><path d="M1616,532L1614,676L1764,563Z" fill="#666666" stroke="#666666" stroke-width="1.51"/><path d="M1588,185L1633,375L1770,207Z" fill="#828282" stroke="#828282" stroke-width="1.51"/><path d="M585,1312L233,1318L708,1332Z" fill="#646464" stroke="#646464" stroke-width="1.51"/><path d="M1634,128L1588,185L1770,207Z" fill="#878787" stroke="#878787" stroke-width="1.51"/><path d="M1588,185L1522,366L1633,375Z" fill="#858585" stroke="#858585" stroke-width="1.51"/><path d="M1614,676L1516,801L1671,889Z" fill="#5c5c5c" stroke="#5c5c5c" stroke-width="1.51"/><path d="M1505,1105L1667,1184L1674,1036Z" fill="#3c3c3c" stroke="#3c3c3c" stroke-width="1.51"/><path d="M1671,889L1526,990L1674,1036Z" fill="#4b4b4b" stroke="#4b4b4b" stroke-width="1.51"/><path d="M1492,-30L1634,128L1683,-49Z" fill="#949494" stroke="#949494" stroke-width="1.51"/><path d="M1583,-218L1492,-30L1683,-49Z" fill="#9b9b9b" stroke="#9b9b9b" stroke-width="1.51"/><path d="M1526,990L1505,1105L1674,1036Z" fill="#474747" stroke="#474747" stroke-width="1.51"/><path d="M1505,1105L1609,1242L1667,1184Z" fill="#373737" stroke="#373737" stroke-width="1.51"/><path d="M1516,801L1526,990L1671,889Z" fill="#555555" stroke="#555555" stroke-width="1.51"/><path d="M1492,-30L1456,58L1634,128Z" fill="#989898" stroke="#989898" stroke-width="1.51"/><path d="M1441,287L1522,366L1588,185Z" fill="#8c8c8c" stroke="#8c8c8c" stroke-width="1.51"/><path d="M1437,569L1433,637L1614,676Z" fill="#707070" stroke="#707070" stroke-width="1.51"/><path d="M1437,569L1614,676L1616,532Z" fill="#6f6f6f" stroke="#6f6f6f" stroke-width="1.51"/><path d="M1522,366L1616,532L1633,375Z" fill="#7b7b7b" stroke="#7b7b7b" stroke-width="1.51"/><path d="M1456,58L1588,185L1634,128Z" fill="#939393" stroke="#939393" stroke-width="1.51"/><path d="M1505,1105L1469,1289L1609,1242Z" fill="#383838" stroke="#383838" stroke-width="1.51"/><path d="M1433,637L1516,801L1614,676Z" fill="#686868" stroke="#686868" stroke-width="1.51"/><path d="M1522,366L1437,569L1616,532Z" fill="#7a7a7a" stroke="#7a7a7a" stroke-width="1.51"/><path d="M1431,-248L1492,-30L1583,-218Z" fill="#a3a3a3" stroke="#a3a3a3" stroke-width="1.51"/><path d="M1456,58L1380,233L1588,185Z" fill="#969696" stroke="#969696" stroke-width="1.51"/><path d="M1380,233L1441,287L1588,185Z" fill="#919191" stroke="#919191" stroke-width="1.51"/><path d="M1368,370L1341,535L1437,569Z" fill="#818181" stroke="#818181" stroke-width="1.51"/><path d="M1350,135L1380,233L1456,58Z" fill="#9c9c9c" stroke="#9c9c9c" stroke-width="1.51"/><path d="M1431,-248L1290,-116L1492,-30Z" fill="#a9a9a9" stroke="#a9a9a9" stroke-width="1.51"/><path d="M1389,1234L1469,1289L1505,1105Z" fill="#3c3c3c" stroke="#3c3c3c" stroke-width="1.51"/><path d="M1368,370L1437,569L1522,366Z" fill="#848484" stroke="#848484" stroke-width="1.51"/><path d="M1350,1021L1505,1105L1526,990Z" fill="#4e4e4e" stroke="#4e4e4e" stroke-width="1.51"/><path d="M1351,892L1350,1021L1526,990Z" fill="#585858" stroke="#585858" stroke-width="1.51"/><path d="M1516,801L1351,892L1526,990Z" fill="#5b5b5b" stroke="#5b5b5b" stroke-width="1.51"/><path d="M1350,1021L1359,1095L1505,1105Z" fill="#4c4c4c" stroke="#4c4c4c" stroke-width="1.51"/><path d="M1433,637L1302,696L1516,801Z" fill="#6d6d6d" stroke="#6d6d6d" stroke-width="1.51"/><path d="M1441,287L1368,370L1522,366Z" fill="#8c8c8c" stroke="#8c8c8c" stroke-width="1.51"/><path d="M1359,1095L1389,1234L1505,1105Z" fill="#434343" stroke="#434343" stroke-width="1.51"/><path d="M1302,696L1351,892L1516,801Z" fill="#676767" stroke="#676767" stroke-width="1.51"/><path d="M1300,-199L1290,-116L1431,-248Z" fill="#aeaeae" stroke="#aeaeae" stroke-width="1.51"/><path d="M1389,1234L1207,1345L1469,1289Z" fill="#3b3b3b" stroke="#3b3b3b" stroke-width="1.51"/><path d="M1290,-116L1456,58L1492,-30Z" fill="#a3a3a3" stroke="#a3a3a3" stroke-width="1.51"/><path d="M1204,-257L1300,-199L1431,-248Z" fill="#b1b1b1" stroke="#b1b1b1" stroke-width="1.51"/><path d="M1290,-116L1350,135L1456,58Z" fill="#a3a3a3" stroke="#a3a3a3" stroke-width="1.51"/><path d="M1341,535L1433,637L1437,569Z" fill="#797979" stroke="#797979" stroke-width="1.51"/><path d="M1380,233L1368,370L1441,287Z" fill="#929292" stroke="#929292" stroke-width="1.51"/><path d="M1341,535L1302,696L1433,637Z" fill="#787878" stroke="#787878" stroke-width="1.51"/><path d="M1290,-116L1203,-84L1350,135Z" fill="#acacac" stroke="#acacac" stroke-width="1.51"/><path d="M1203,-84L1214,139L1350,135Z" fill="#a8a8a8" stroke="#a8a8a8" stroke-width="1.51"/><path d="M1234,270L1368,370L1380,233Z" fill="#969696" stroke="#969696" stroke-width="1.51"/><path d="M1359,1095L1205,1150L1389,1234Z" fill="#474747" stroke="#474747" stroke-width="1.51"/><path d="M1205,1150L1207,1345L1389,1234Z" fill="#434343" stroke="#434343" stroke-width="1.51"/><path d="M1302,696L1160,810L1351,892Z" fill="#6e6e6e" stroke="#6e6e6e" stroke-width="1.51"/><path d="M1133,392L1341,535L1368,370Z" fill="#8d8d8d" stroke="#8d8d8d" stroke-width="1.51"/><path d="M1350,135L1234,270L1380,233Z" fill="#9b9b9b" stroke="#9b9b9b" stroke-width="1.51"/><path d="M1214,139L1234,270L1350,135Z" fill="#a1a1a1" stroke="#a1a1a1" stroke-width="1.51"/><path d="M1151,964L1350,1021L1351,892Z" fill="#606060" stroke="#606060" stroke-width="1.51"/><path d="M1234,270L1133,392L1368,370Z" fill="#979797" stroke="#979797" stroke-width="1.51"/><path d="M114,-258L386,-216L561,-230Z" fill="#eaeaea" stroke="#eaeaea" stroke-width="1.51"/><path d="M1216,688L1302,696L1341,535Z" fill="#7a7a7a" stroke="#7a7a7a" stroke-width="1.51"/><path d="M1350,1021L1205,1150L1359,1095Z" fill="#505050" stroke="#505050" stroke-width="1.51"/><path d="M1139,569L1216,688L1341,535Z" fill="#818181" stroke="#818181" stroke-width="1.51"/><path d="M1133,392L1139,569L1341,535Z" fill="#8b8b8b" stroke="#8b8b8b" stroke-width="1.51"/><path d="M1151,964L1205,1150L1350,1021Z" fill="#595959" stroke="#595959" stroke-width="1.51"/><path d="M1160,810L1151,964L1351,892Z" fill="#696969" stroke="#696969" stroke-width="1.51"/><path d="M1216,688L1160,810L1302,696Z" fill="#767676" stroke="#767676" stroke-width="1.51"/><path d="M1203,-84L1290,-116L1300,-199Z" fill="#b1b1b1" stroke="#b1b1b1" stroke-width="1.51"/><path d="M1204,-257L1203,-84L1300,-199Z" fill="#b4b4b4" stroke="#b4b4b4" stroke-width="1.51"/><path d="M1045,-245L1203,-84L1204,-257Z" fill="#bababa" stroke="#bababa" stroke-width="1.51"/><path d="M1151,964L1054,1112L1205,1150Z" fill="#5b5b5b" stroke="#5b5b5b" stroke-width="1.51"/><path d="M1205,1150L1033,1322L1207,1345Z" fill="#474747" stroke="#474747" stroke-width="1.51"/><path d="M1203,-84L1041,-27L1214,139Z" fill="#b1b1b1" stroke="#b1b1b1" stroke-width="1.51"/><path d="M1041,-27L1034,96L1214,139Z" fill="#b1b1b1" stroke="#b1b1b1" stroke-width="1.51"/><path d="M1214,139L1019,244L1234,270Z" fill="#a5a5a5" stroke="#a5a5a5" stroke-width="1.51"/><path d="M1019,244L1087,340L1234,270Z" fill="#a3a3a3" stroke="#a3a3a3" stroke-width="1.51"/><path d="M1087,340L1133,392L1234,270Z" fill="#9d9d9d" stroke="#9d9d9d" stroke-width="1.51"/><path d="M561,-230L701,-200L933,-242Z" fill="#d7d7d7" stroke="#d7d7d7" stroke-width="1.51"/><path d="M1054,1112L1033,1322L1205,1150Z" fill="#505050" stroke="#505050" stroke-width="1.51"/><path d="M1034,96L1019,244L1214,139Z" fill="#adadad" stroke="#adadad" stroke-width="1.51"/><path d="M1036,705L1160,810L1216,688Z" fill="#7b7b7b" stroke="#7b7b7b" stroke-width="1.51"/><path d="M1139,569L1036,705L1216,688Z" fill="#828282" stroke="#828282" stroke-width="1.51"/><path d="M1045,-245L1041,-27L1203,-84Z" fill="#bbbbbb" stroke="#bbbbbb" stroke-width="1.51"/><path d="M1133,392L1013,513L1139,569Z" fill="#929292" stroke="#929292" stroke-width="1.51"/><path d="M979,956L1054,1112L1151,964Z" fill="#666666" stroke="#666666" stroke-width="1.51"/><path d="M1024,792L979,956L1151,964Z" fill="#727272" stroke="#727272" stroke-width="1.51"/><path d="M1024,792L1151,964L1160,810Z" fill="#727272" stroke="#727272" stroke-width="1.51"/><path d="M1036,705L1024,792L1160,810Z" fill="#7c7c7c" stroke="#7c7c7c" stroke-width="1.51"/><path d="M1013,513L1036,705L1139,569Z" fill="#8b8b8b" stroke="#8b8b8b" stroke-width="1.51"/><path d="M1087,340L1013,513L1133,392Z" fill="#9a9a9a" stroke="#9a9a9a" stroke-width="1.51"/><path d="M1013,513L909,595L1036,705Z" fill="#8f8f8f" stroke="#8f8f8f" stroke-width="1.51"/><path d="M933,-242L885,-50L1041,-27Z" fill="#c4c4c4" stroke="#c4c4c4" stroke-width="1.51"/><path d="M933,-242L1041,-27L1045,-245Z" fill="#c2c2c2" stroke="#c2c2c2" stroke-width="1.51"/><path d="M888,1139L1033,1322L1054,1112Z" fill="#565656" stroke="#565656" stroke-width="1.51"/><path d="M916,396L1013,513L1087,340Z" fill="#9f9f9f" stroke="#9f9f9f" stroke-width="1.51"/><path d="M1019,244L926,289L1087,340Z" fill="#a9a9a9" stroke="#a9a9a9" stroke-width="1.51"/><path d="M926,289L916,396L1087,340Z" fill="#a7a7a7" stroke="#a7a7a7" stroke-width="1.51"/><path d="M893,823L979,956L1024,792Z" fill="#7b7b7b" stroke="#7b7b7b" stroke-width="1.51"/><path d="M888,1139L886,1320L1033,1322Z" fill="#535353" stroke="#535353" stroke-width="1.51"/><path d="M897,81L1019,244L1034,96Z" fill="#b4b4b4" stroke="#b4b4b4" stroke-width="1.51"/><path d="M897,81L1034,96L1041,-27Z" fill="#b9b9b9" stroke="#b9b9b9" stroke-width="1.51"/><path d="M979,956L888,1139L1054,1112Z" fill="#646464" stroke="#646464" stroke-width="1.51"/><path d="M885,-50L897,81L1041,-27Z" fill="#bfbfbf" stroke="#bfbfbf" stroke-width="1.51"/><path d="M909,595L870,662L1036,705Z" fill="#8d8d8d" stroke="#8d8d8d" stroke-width="1.51"/><path d="M893,823L1024,792L1036,705Z" fill="#818181" stroke="#818181" stroke-width="1.51"/><path d="M897,81L926,289L1019,244Z" fill="#b3b3b3" stroke="#b3b3b3" stroke-width="1.51"/><path d="M870,662L893,823L1036,705Z" fill="#878787" stroke="#878787" stroke-width="1.51"/><path d="M861,941L888,1139L979,956Z" fill="#6e6e6e" stroke="#6e6e6e" stroke-width="1.51"/><path d="M916,396L909,595L1013,513Z" fill="#9a9a9a" stroke="#9a9a9a" stroke-width="1.51"/><path d="M897,81L776,262L926,289Z" fill="#b8b8b8" stroke="#b8b8b8" stroke-width="1.51"/><path d="M893,823L861,941L979,956Z" fill="#7a7a7a" stroke="#7a7a7a" stroke-width="1.51"/><path d="M394,1287L233,1318L585,1312Z" fill="#6a6a6a" stroke="#6a6a6a" stroke-width="1.51"/><path d="M861,941L788,1099L888,1139Z" fill="#6d6d6d" stroke="#6d6d6d" stroke-width="1.51"/><path d="M723,519L909,595L916,396Z" fill="#a0a0a0" stroke="#a0a0a0" stroke-width="1.51"/><path d="M776,262L916,396L926,289Z" fill="#b0b0b0" stroke="#b0b0b0" stroke-width="1.51"/><path d="M701,-200L885,-50L933,-242Z" fill="#cdcdcd" stroke="#cdcdcd" stroke-width="1.51"/><path d="M885,-50L791,46L897,81Z" fill="#c3c3c3" stroke="#c3c3c3" stroke-width="1.51"/><path d="M701,-200L771,-25L885,-50Z" fill="#cecece" stroke="#cecece" stroke-width="1.51"/><path d="M788,1099L708,1332L886,1320Z" fill="#5c5c5c" stroke="#5c5c5c" stroke-width="1.51"/><path d="M788,1099L886,1320L888,1139Z" fill="#5e5e5e" stroke="#5e5e5e" stroke-width="1.51"/><path d="M870,662L767,858L893,823Z" fill="#888888" stroke="#888888" stroke-width="1.51"/><path d="M791,46L776,262L897,81Z" fill="#c0c0c0" stroke="#c0c0c0" stroke-width="1.51"/><path d="M776,262L692,436L916,396Z" fill="#b1b1b1" stroke="#b1b1b1" stroke-width="1.51"/><path d="M692,436L723,519L916,396Z" fill="#aaaaaa" stroke="#aaaaaa" stroke-width="1.51"/><path d="M767,858L861,941L893,823Z" fill="#818181" stroke="#818181" stroke-width="1.51"/><path d="M723,519L870,662L909,595Z" fill="#999999" stroke="#999999" stroke-width="1.51"/><path d="M764,940L788,1099L861,941Z" fill="#787878" stroke="#787878" stroke-width="1.51"/><path d="M686,671L767,858L870,662Z" fill="#929292" stroke="#929292" stroke-width="1.51"/><path d="M771,-25L791,46L885,-50Z" fill="#c8c8c8" stroke="#c8c8c8" stroke-width="1.51"/><path d="M767,858L764,940L861,941Z" fill="#808080" stroke="#808080" stroke-width="1.51"/><path d="M723,519L686,671L870,662Z" fill="#9c9c9c" stroke="#9c9c9c" stroke-width="1.51"/><path d="M19,1294L-201,1329L233,1318Z" fill="#767676" stroke="#767676" stroke-width="1.51"/><path d="M686,671L617,802L767,858Z" fill="#939393" stroke="#939393" stroke-width="1.51"/><path d="M701,-200L604,-32L771,-25Z" fill="#d5d5d5" stroke="#d5d5d5" stroke-width="1.51"/><path d="M553,1191L708,1332L788,1099Z" fill="#666666" stroke="#666666" stroke-width="1.51"/><path d="M764,940L609,970L788,1099Z" fill="#7b7b7b" stroke="#7b7b7b" stroke-width="1.51"/><path d="M571,62L611,208L791,46Z" fill="#cccccc" stroke="#cccccc" stroke-width="1.51"/><path d="M771,-25L604,-32L791,46Z" fill="#cecece" stroke="#cecece" stroke-width="1.51"/><path d="M604,-32L571,62L791,46Z" fill="#d0d0d0" stroke="#d0d0d0" stroke-width="1.51"/><path d="M611,208L776,262L791,46Z" fill="#c3c3c3" stroke="#c3c3c3" stroke-width="1.51"/><path d="M611,208L692,436L776,262Z" fill="#bdbdbd" stroke="#bdbdbd" stroke-width="1.51"/><path d="M609,970L553,1191L788,1099Z" fill="#757575" stroke="#757575" stroke-width="1.51"/><path d="M553,1191L585,1312L708,1332Z" fill="#646464" stroke="#646464" stroke-width="1.51"/><path d="M609,970L764,940L767,858Z" fill="#858585" stroke="#858585" stroke-width="1.51"/><path d="M617,802L609,970L767,858Z" fill="#8c8c8c" stroke="#8c8c8c" stroke-width="1.51"/><path d="M611,208L532,444L692,436Z" fill="#bcbcbc" stroke="#bcbcbc" stroke-width="1.51"/><path d="M692,436L607,519L723,519Z" fill="#adadad" stroke="#adadad" stroke-width="1.51"/><path d="M607,519L686,671L723,519Z" fill="#a6a6a6" stroke="#a6a6a6" stroke-width="1.51"/><path d="M607,519L540,664L686,671Z" fill="#a5a5a5" stroke="#a5a5a5" stroke-width="1.51"/><path d="M561,-230L604,-32L701,-200Z" fill="#dbdbdb" stroke="#dbdbdb" stroke-width="1.51"/><path d="M452,285L532,444L611,208Z" fill="#c4c4c4" stroke="#c4c4c4" stroke-width="1.51"/><path d="M540,664L617,802L686,671Z" fill="#9c9c9c" stroke="#9c9c9c" stroke-width="1.51"/><path d="M532,444L607,519L692,436Z" fill="#b3b3b3" stroke="#b3b3b3" stroke-width="1.51"/><path d="M445,1031L426,1128L553,1191Z" fill="#797979" stroke="#797979" stroke-width="1.51"/><path d="M561,-230L470,-106L604,-32Z" fill="#dddddd" stroke="#dddddd" stroke-width="1.51"/><path d="M445,1031L553,1191L609,970Z" fill="#7d7d7d" stroke="#7d7d7d" stroke-width="1.51"/><path d="M571,62L420,90L611,208Z" fill="#d1d1d1" stroke="#d1d1d1" stroke-width="1.51"/><path d="M440,830L609,970L617,802Z" fill="#919191" stroke="#919191" stroke-width="1.51"/><path d="M540,664L440,830L617,802Z" fill="#9b9b9b" stroke="#9b9b9b" stroke-width="1.51"/><path d="M385,552L540,664L607,519Z" fill="#adadad" stroke="#adadad" stroke-width="1.51"/><path d="M532,444L385,552L607,519Z" fill="#b3b3b3" stroke="#b3b3b3" stroke-width="1.51"/><path d="M440,830L445,1031L609,970Z" fill="#8d8d8d" stroke="#8d8d8d" stroke-width="1.51"/><path d="M420,90L452,285L611,208Z" fill="#cecece" stroke="#cecece" stroke-width="1.51"/><path d="M420,711L440,830L540,664Z" fill="#a1a1a1" stroke="#a1a1a1" stroke-width="1.51"/><path d="M470,-106L571,62L604,-32Z" fill="#d8d8d8" stroke="#d8d8d8" stroke-width="1.51"/><path d="M470,-106L420,90L571,62Z" fill="#d9d9d9" stroke="#d9d9d9" stroke-width="1.51"/><path d="M553,1191L394,1287L585,1312Z" fill="#696969" stroke="#696969" stroke-width="1.51"/><path d="M-218,-211L-26,-219L114,-258Z" fill="#f8f8f8" stroke="#f8f8f8" stroke-width="1.51"/><path d="M452,285L399,391L532,444Z" fill="#c2c2c2" stroke="#c2c2c2" stroke-width="1.51"/><path d="M386,-216L470,-106L561,-230Z" fill="#e3e3e3" stroke="#e3e3e3" stroke-width="1.51"/><path d="M426,1128L394,1287L553,1191Z" fill="#717171" stroke="#717171" stroke-width="1.51"/><path d="M385,552L420,711L540,664Z" fill="#aaaaaa" stroke="#aaaaaa" stroke-width="1.51"/><path d="M440,830L340,887L445,1031Z" fill="#949494" stroke="#949494" stroke-width="1.51"/><path d="M399,391L385,552L532,444Z" fill="#bbbbbb" stroke="#bbbbbb" stroke-width="1.51"/><path d="M114,-258L284,-184L386,-216Z" fill="#ededed" stroke="#ededed" stroke-width="1.51"/><path d="M420,90L281,255L452,285Z" fill="#d2d2d2" stroke="#d2d2d2" stroke-width="1.51"/><path d="M386,-216L298,-114L470,-106Z" fill="#e6e6e6" stroke="#e6e6e6" stroke-width="1.51"/><path d="M324,62L420,90L470,-106Z" fill="#dddddd" stroke="#dddddd" stroke-width="1.51"/><path d="M298,-114L324,62L470,-106Z" fill="#e3e3e3" stroke="#e3e3e3" stroke-width="1.51"/><path d="M324,62L281,255L420,90Z" fill="#d9d9d9" stroke="#d9d9d9" stroke-width="1.51"/><path d="M340,887L271,935L445,1031Z" fill="#939393" stroke="#939393" stroke-width="1.51"/><path d="M281,255L399,391L452,285Z" fill="#cbcbcb" stroke="#cbcbcb" stroke-width="1.51"/><path d="M385,552L289,709L420,711Z" fill="#acacac" stroke="#acacac" stroke-width="1.51"/><path d="M420,711L289,709L440,830Z" fill="#a3a3a3" stroke="#a3a3a3" stroke-width="1.51"/><path d="M289,709L340,887L440,830Z" fill="#9f9f9f" stroke="#9f9f9f" stroke-width="1.51"/><path d="M241,1097L426,1128L445,1031Z" fill="#818181" stroke="#818181" stroke-width="1.51"/><path d="M271,935L241,1097L445,1031Z" fill="#8b8b8b" stroke="#8b8b8b" stroke-width="1.51"/><path d="M241,1097L394,1287L426,1128Z" fill="#777777" stroke="#777777" stroke-width="1.51"/><path d="M259,440L385,552L399,391Z" fill="#bfbfbf" stroke="#bfbfbf" stroke-width="1.51"/><path d="M241,1097L233,1318L394,1287Z" fill="#747474" stroke="#747474" stroke-width="1.51"/><path d="M254,531L289,709L385,552Z" fill="#b4b4b4" stroke="#b4b4b4" stroke-width="1.51"/><path d="M259,440L254,531L385,552Z" fill="#bcbcbc" stroke="#bcbcbc" stroke-width="1.51"/><path d="M284,-184L298,-114L386,-216Z" fill="#e9e9e9" stroke="#e9e9e9" stroke-width="1.51"/><path d="M281,255L259,440L399,391Z" fill="#cacaca" stroke="#cacaca" stroke-width="1.51"/><path d="M166,1167L233,1318L241,1097Z" fill="#7a7a7a" stroke="#7a7a7a" stroke-width="1.51"/><path d="M91,1282L19,1294L233,1318Z" fill="#747474" stroke="#747474" stroke-width="1.51"/><path d="M102,853L271,935L289,709Z" fill="#a2a2a2" stroke="#a2a2a2" stroke-width="1.51"/><path d="M163,137L281,255L324,62Z" fill="#dbdbdb" stroke="#dbdbdb" stroke-width="1.51"/><path d="M298,-114L177,-64L324,62Z" fill="#e5e5e5" stroke="#e5e5e5" stroke-width="1.51"/><path d="M289,709L271,935L340,887Z" fill="#9e9e9e" stroke="#9e9e9e" stroke-width="1.51"/><path d="M169,978L241,1097L271,935Z" fill="#919191" stroke="#919191" stroke-width="1.51"/><path d="M180,254L259,440L281,255Z" fill="#d0d0d0" stroke="#d0d0d0" stroke-width="1.51"/><path d="M254,531L145,673L289,709Z" fill="#b3b3b3" stroke="#b3b3b3" stroke-width="1.51"/><path d="M177,-64L163,137L324,62Z" fill="#e3e3e3" stroke="#e3e3e3" stroke-width="1.51"/><path d="M166,543L145,673L254,531Z" fill="#bababa" stroke="#bababa" stroke-width="1.51"/><path d="M180,254L100,397L259,440Z" fill="#cfcfcf" stroke="#cfcfcf" stroke-width="1.51"/><path d="M163,137L180,254L281,255Z" fill="#d9d9d9" stroke="#d9d9d9" stroke-width="1.51"/><path d="M145,673L102,853L289,709Z" fill="#ababab" stroke="#ababab" stroke-width="1.51"/><path d="M284,-184L177,-64L298,-114Z" fill="#eaeaea" stroke="#eaeaea" stroke-width="1.51"/><path d="M102,853L169,978L271,935Z" fill="#9c9c9c" stroke="#9c9c9c" stroke-width="1.51"/><path d="M114,-258L177,-64L284,-184Z" fill="#eeeeee" stroke="#eeeeee" stroke-width="1.51"/><path d="M166,543L254,531L259,440Z" fill="#bfbfbf" stroke="#bfbfbf" stroke-width="1.51"/><path d="M166,1167L91,1282L233,1318Z" fill="#777777" stroke="#777777" stroke-width="1.51"/><path d="M100,397L166,543L259,440Z" fill="#c5c5c5" stroke="#c5c5c5" stroke-width="1.51"/><path d="M169,978L166,1167L241,1097Z" fill="#888888" stroke="#888888" stroke-width="1.51"/><path d="M-8,702L102,853L145,673Z" fill="#afafaf" stroke="#afafaf" stroke-width="1.51"/><path d="M17,583L145,673L166,543Z" fill="#bbbbbb" stroke="#bbbbbb" stroke-width="1.51"/><path d="M32,1104L166,1167L169,978Z" fill="#8a8a8a" stroke="#8a8a8a" stroke-width="1.51"/><path d="M114,-258L-26,-219L177,-64Z" fill="#f2f2f2" stroke="#f2f2f2" stroke-width="1.51"/><path d="M-26,-219L-38,-31L177,-64Z" fill="#f1f1f1" stroke="#f1f1f1" stroke-width="1.51"/><path d="M-13,70L163,137L177,-64Z" fill="#e7e7e7" stroke="#e7e7e7" stroke-width="1.51"/><path d="M-38,-31L-13,70L177,-64Z" fill="#ececec" stroke="#ececec" stroke-width="1.51"/><path d="M163,137L-51,216L180,254Z" fill="#dedede" stroke="#dedede" stroke-width="1.51"/><path d="M-51,216L100,397L180,254Z" fill="#d9d9d9" stroke="#d9d9d9" stroke-width="1.51"/><path d="M100,397L17,583L166,543Z" fill="#c4c4c4" stroke="#c4c4c4" stroke-width="1.51"/><path d="M102,853L34,855L169,978Z" fill="#a1a1a1" stroke="#a1a1a1" stroke-width="1.51"/><path d="M34,855L-32,953L169,978Z" fill="#a0a0a0" stroke="#a0a0a0" stroke-width="1.51"/><path d="M-32,953L32,1104L169,978Z" fill="#969696" stroke="#969696" stroke-width="1.51"/><path d="M-13,70L-51,216L163,137Z" fill="#e4e4e4" stroke="#e4e4e4" stroke-width="1.51"/><path d="M32,1104L91,1282L166,1167Z" fill="#7f7f7f" stroke="#7f7f7f" stroke-width="1.51"/><path d="M-51,216L-30,384L100,397Z" fill="#d8d8d8" stroke="#d8d8d8" stroke-width="1.51"/><path d="M-8,702L34,855L102,853Z" fill="#ababab" stroke="#ababab" stroke-width="1.51"/><path d="M17,583L-8,702L145,673Z" fill="#b8b8b8" stroke="#b8b8b8" stroke-width="1.51"/><path d="M32,1104L19,1294L91,1282Z" fill="#7d7d7d" stroke="#7d7d7d" stroke-width="1.51"/><path d="M-30,384L17,583L100,397Z" fill="#cbcbcb" stroke="#cbcbcb" stroke-width="1.51"/><path d="M-30,384L-113,415L17,583Z" fill="#cccccc" stroke="#cccccc" stroke-width="1.51"/><path d="M-113,415L-159,536L17,583Z" fill="#c8c8c8" stroke="#c8c8c8" stroke-width="1.51"/><path d="M-32,953L-119,1030L32,1104Z" fill="#969696" stroke="#969696" stroke-width="1.51"/><path d="M-155,1190L19,1294L32,1104Z" fill="#828282" stroke="#828282" stroke-width="1.51"/><path d="M-119,1030L-155,1190L32,1104Z" fill="#8d8d8d" stroke="#8d8d8d" stroke-width="1.51"/><path d="M-185,795L-32,953L34,855Z" fill="#a7a7a7" stroke="#a7a7a7" stroke-width="1.51"/><path d="M-139,727L-185,795L34,855Z" fill="#afafaf" stroke="#afafaf" stroke-width="1.51"/><path d="M-8,702L-139,727L34,855Z" fill="#b1b1b1" stroke="#b1b1b1" stroke-width="1.51"/><path d="M-159,536L-139,727L-8,702Z" fill="#bbbbbb" stroke="#bbbbbb" stroke-width="1.51"/><path d="M-159,536L-8,702L17,583Z" fill="#bebebe" stroke="#bebebe" stroke-width="1.51"/><path d="M-155,1190L-201,1329L19,1294Z" fill="#7d7d7d" stroke="#7d7d7d" stroke-width="1.51"/><path d="M-218,-211L-180,-7L-38,-31Z" fill="#f5f5f5" stroke="#f5f5f5" stroke-width="1.51"/><path d="M-51,216L-113,415L-30,384Z" fill="#d9d9d9" stroke="#d9d9d9" stroke-width="1.51"/><path d="M-218,-211L-38,-31L-26,-219Z" fill="#f6f6f6" stroke="#f6f6f6" stroke-width="1.51"/><path d="M-204,99L-51,216L-13,70Z" fill="#e8e8e8" stroke="#e8e8e8" stroke-width="1.51"/><path d="M-38,-31L-180,-7L-13,70Z" fill="#eeeeee" stroke="#eeeeee" stroke-width="1.51"/><path d="M-180,-7L-204,99L-13,70Z" fill="#ededed" stroke="#ededed" stroke-width="1.51"/><path d="M-204,99L-202,199L-51,216Z" fill="#e7e7e7" stroke="#e7e7e7" stroke-width="1.51"/><path d="M-202,199L-113,415L-51,216Z" fill="#dfdfdf" stroke="#dfdfdf" stroke-width="1.51"/><path d="M-185,795L-119,1030L-32,953Z" fill="#a4a4a4" stroke="#a4a4a4" stroke-width="1.51"/><path d="M-202,199L-159,536L-113,415Z" fill="#d6d6d6" stroke="#d6d6d6" stroke-width="1.51"/><path d="M-185,795L-155,1190L-119,1030Z" fill="#9c9c9c" stroke="#9c9c9c" stroke-width="1.51"/><path d="M-159,536L-185,795L-139,727Z" fill="#bababa" stroke="#bababa" stroke-width="1.51"/><path d="M-185,795L-201,1329L-155,1190Z" fill="#8f8f8f" stroke="#8f8f8f" stroke-width="1.51"/><path d="M-202,199L-185,795L-159,536Z" fill="#cbcbcb" stroke="#cbcbcb" stroke-width="1.51"/><path d="M-218,-211L-204,99L-180,-7Z" fill="#f4f4f4" stroke="#f4f4f4" stroke-width="1.51"/><path d="M-202,199L-201,1329L-185,795Z" fill="#b3b3b3" stroke="#b3b3b3" stroke-width="1.51"/><path d="M-202,199L-218,-211L-201,1329Z" fill="#d2d2d2" stroke="#d2d2d2" stroke-width="1.51"/><path d="M-204,99L-218,-211L-202,199Z" fill="#f0f0f0" stroke="#f0f0f0" stroke-width="1.51"/></svg>
