<svg xmlns="http://www.w3.org/2000/svg" width="1920" height="1080"><path d="M233,1318L-201,1329L708,1332Z" fill="#7687a4" stroke="#7687a4" stroke-width="1.51"/><path d="M114,-258L561,-230L933,-242Z" fill="#dadced" stroke="#dadced" stroke-width="1.51"/><path d="M933,-242L1045,-245L1204,-257Z" fill="#b3cae2" stroke="#b3cae2" stroke-width="1.51"/><path d="M114,-258L933,-242L1204,-257Z" fill="#cbd5e8" stroke="#cbd5e8" stroke-width="1.51"/><path d="M1033,1322L886,1320L1207,1345Z" fill="#396e94" stroke="#396e94" stroke-width="1.51"/><path d="M886,1320L708,1332L1207,1345Z" fill="#437296" stroke="#437296" stroke-width="1.51"/><path d="M1431,-248L1583,-218L1835,-226Z" fill="#96add1" stroke="#96add1" stroke-width="1.51"/><path d="M1815,1290L1469,1289L1923,1331Z" fill="#045281" stroke="#045281" stroke-width="1.51"/><path d="M1469,1289L1207,1345L1923,1331Z" fill="#075889" stroke="#075889" stroke-width="1.51"/><path d="M1204,-257L1431,-248L2029,-238Z" fill="#99b0d5" stroke="#99b0d5" stroke-width="1.51"/><path d="M1431,-248L1835,-226L2029,-238Z" fill="#93a7c8" stroke="#93a7c8" stroke-width="1.51"/><path d="M1835,-226L1912,-217L2029,-238Z" fill="#8d9ebb" stroke="#8d9ebb" stroke-width="1.51"/><path d="M2048,114L2033,215L2079,399Z" fill="#6782a3" stroke="#6782a3" stroke-width="1.51"/><path d="M2083,1010L1939,1086L2085,1195Z" fill="#045382" stroke="#045382" stroke-width="1.51"/><path d="M2048,114L2079,399L2131,484Z" fill="#5c7b9e" stroke="#5c7b9e" stroke-width="1.51"/><path d="M2078,-95L2048,114L2131,484Z" fill="#6e83a2" stroke="#6e83a2" stroke-width="1.51"/><path d="M1893,688L1981,813L2136,710Z" fill="#216c99" stroke="#216c99" stroke-width="1.51"/><path d="M1907,591L1893,688L2136,710Z" fill="#31729e" stroke="#31729e" stroke-width="1.51"/><path d="M1981,813L2072,873L2136,710Z" fill="#196491" stroke="#196491" stroke-width="1.51"/><path d="M2131,484L1907,591L2136,710Z" fill="#3a7199" stroke="#3a7199" stroke-width="1.51"/><path d="M2072,873L2083,1010L2136,710Z" fill="#115d8c" stroke="#115d8c" stroke-width="1.51"/><path d="M2083,1010L2085,1195L2136,710Z" fill="#035587" stroke="#035587" stroke-width="1.51"/><path d="M2079,399L1943,391L2131,484Z" fill="#527a9f" stroke="#527a9f" stroke-width="1.51"/><path d="M1943,391L1907,591L2131,484Z" fill="#4b7ba2" stroke="#4b7ba2" stroke-width="1.51"/><path d="M1890,-6L1893,39L2048,114Z" fill="#7d91b3" stroke="#7d91b3" stroke-width="1.51"/><path d="M1981,813L1899,1017L2072,873Z" fill="#0e6295" stroke="#0e6295" stroke-width="1.51"/><path d="M2029,-238L1912,-217L2078,-95Z" fill="#8898b3" stroke="#8898b3" stroke-width="1.51"/><path d="M1890,-6L2048,114L2078,-95Z" fill="#7e90ae" stroke="#7e90ae" stroke-width="1.51"/><path d="M2033,215L1943,391L2079,399Z" fill="#5e80a4" stroke="#5e80a4" stroke-width="1.51"/><path d="M2072,873L1899,1017L2083,1010Z" fill="#045b8f" stroke="#045b8f" stroke-width="1.51"/><path d="M1939,1086L2043,1294L2085,1195Z" fill="#034d7a" stroke="#034d7a" stroke-width="1.51"/><path d="M1899,1017L1939,1086L2083,1010Z" fill="#045a8c" stroke="#045a8c" stroke-width="1.51"/><path d="M1909,233L1943,391L2033,215Z" fill="#6686ab" stroke="#6686ab" stroke-width="1.51"/><path d="M1912,-217L1890,-6L2078,-95Z" fill="#8698b6" stroke="#8698b6" stroke-width="1.51"/><path d="M1939,1086L1923,1331L2043,1294Z" fill="#034d78" stroke="#034d78" stroke-width="1.51"/><path d="M1909,233L2033,215L2048,114Z" fill="#6f88aa" stroke="#6f88aa" stroke-width="1.51"/><path d="M1893,39L1909,233L2048,114Z" fill="#778eb0" stroke="#778eb0" stroke-width="1.51"/><path d="M1815,1290L1923,1331L1939,1086Z" fill="#035180" stroke="#035180" stroke-width="1.51"/><path d="M1838,832L1899,1017L1981,813Z" fill="#11679d" stroke="#11679d" stroke-width="1.51"/><path d="M1893,39L1832,79L1909,233Z" fill="#7b92b8" stroke="#7b92b8" stroke-width="1.51"/><path d="M1772,1188L1815,1290L1939,1086Z" fill="#04588a" stroke="#04588a" stroke-width="1.51"/><path d="M1833,389L1907,591L1943,391Z" fill="#5282ad" stroke="#5282ad" stroke-width="1.51"/><path d="M1893,688L1838,832L1981,813Z" fill="#1e6fa1" stroke="#1e6fa1" stroke-width="1.51"/><path d="M1609,1242L1469,1289L1815,1290Z" fill="#04598b" stroke="#04598b" stroke-width="1.51"/><path d="M1835,-226L1802,-15L1890,-6Z" fill="#899ec0" stroke="#899ec0" stroke-width="1.51"/><path d="M1833,389L1764,563L1907,591Z" fill="#4c82b0" stroke="#4c82b0" stroke-width="1.51"/><path d="M1835,-226L1890,-6L1912,-217Z" fill="#8c9fbf" stroke="#8c9fbf" stroke-width="1.51"/><path d="M1795,1035L1772,1188L1939,1086Z" fill="#045e93" stroke="#045e93" stroke-width="1.51"/><path d="M1909,233L1833,389L1943,391Z" fill="#6288b0" stroke="#6288b0" stroke-width="1.51"/><path d="M1899,1017L1795,1035L1939,1086Z" fill="#045f95" stroke="#045f95" stroke-width="1.51"/><path d="M1791,702L1838,832L1893,688Z" fill="#2375a7" stroke="#2375a7" stroke-width="1.51"/><path d="M1838,832L1795,1035L1899,1017Z" fill="#04659e" stroke="#04659e" stroke-width="1.51"/><path d="M1770,207L1833,389L1909,233Z" fill="#6b8eb6" stroke="#6b8eb6" stroke-width="1.51"/><path d="M1832,79L1770,207L1909,233Z" fill="#7692b9" stroke="#7692b9" stroke-width="1.51"/><path d="M1791,702L1893,688L1907,591Z" fill="#3479a9" stroke="#3479a9" stroke-width="1.51"/><path d="M1764,563L1791,702L1907,591Z" fill="#3b7dad" stroke="#3b7dad" stroke-width="1.51"/><path d="M1890,-6L1802,-15L1893,39Z" fill="#8399bc" stroke="#8399bc" stroke-width="1.51"/><path d="M1802,-15L1832,79L1893,39Z" fill="#8298bc" stroke="#8298bc" stroke-width="1.51"/><path d="M1770,207L1633,375L1833,389Z" fill="#678ebb" stroke="#678ebb" stroke-width="1.51"/><path d="M1633,375L1764,563L1833,389Z" fill="#5889b7" stroke="#5889b7" stroke-width="1.51"/><path d="M1683,-49L1802,-15L1835,-226Z" fill="#8ca1c5" stroke="#8ca1c5" stroke-width="1.51"/><path d="M1583,-218L1683,-49L1835,-226Z" fill="#91a7ca" stroke="#91a7ca" stroke-width="1.51"/><path d="M1671,889L1795,1035L1838,832Z" fill="#0c6ba5" stroke="#0c6ba5" stroke-width="1.51"/><path d="M1791,702L1671,889L1838,832Z" fill="#1c73a9" stroke="#1c73a9" stroke-width="1.51"/><path d="M1634,128L1770,207L1832,79Z" fill="#7c97bf" stroke="#7c97bf" stroke-width="1.51"/><path d="M1802,-15L1634,128L1832,79Z" fill="#829bc1" stroke="#829bc1" stroke-width="1.51"/><path d="M1633,375L1616,532L1764,563Z" fill="#528aba" stroke="#528aba" stroke-width="1.51"/><path d="M1674,1036L1772,1188L1795,1035Z" fill="#046299" stroke="#046299" stroke-width="1.51"/><path d="M1671,889L1674,1036L1795,1035Z" fill="#0568a4" stroke="#0568a4" stroke-width="1.51"/><path d="M1683,-49L1634,128L1802,-15Z" fill="#869ec5" stroke="#869ec5" stroke-width="1.51"/><path d="M1772,1188L1667,1184L1815,1290Z" fill="#03598b" stroke="#03598b" stroke-width="1.51"/><path d="M1667,1184L1609,1242L1815,1290Z" fill="#04598c" stroke="#04598c" stroke-width="1.51"/><path d="M1674,1036L1667,1184L1772,1188Z" fill="#046098" stroke="#046098" stroke-width="1.51"/><path d="M1764,563L1614,676L1791,702Z" fill="#387fb2" stroke="#387fb2" stroke-width="1.51"/><path d="M1614,676L1671,889L1791,702Z" fill="#237aaf" stroke="#237aaf" stroke-width="1.51"/><path d="M1616,532L1614,676L1764,563Z" fill="#4385b7" stroke="#4385b7" stroke-width="1.51"/><path d="M1588,185L1633,375L1770,207Z" fill="#7195c1" stroke="#7195c1" stroke-width="1.51"/><path d="M585,1312L233,1318L708,1332Z" fill="#6680a0" stroke="#6680a0" stroke-width="1.51"/><path d="M1634,128L1588,185L1770,207Z" fill="#7a99c4" stroke="#7a99c4" stroke-width="1.51"/><path d="M1588,185L1522,366L1633,375Z" fill="#6d95c5" stroke="#6d95c5" stroke-width="1.51"/><path d="M1614,676L1516,801L1671,889Z" fill="#1f7bb4" stroke="#1f7bb4" stroke-width="1.51"/><path d="M1505,1105L1667,1184L1674,1036Z" fill="#04659f" stroke="#04659f" stroke-width="1.51"/><path d="M1671,889L1526,990L1674,1036Z" fill="#056caa" stroke="#056caa" stroke-width="1.51"/><path d="M1492,-30L1634,128L1683,-49Z" fill="#89a3cc" stroke="#89a3cc" stroke-width="1.51"/><path d="M1583,-218L1492,-30L1683,-49Z" fill="#91a9d0" stroke="#91a9d0" stroke-width="1.51"/><path d="M1526,990L1505,1105L1674,1036Z" fill="#056aa7" stroke="#056aa7" stroke-width="1.51"/><path d="M1505,1105L1609,1242L1667,1184Z" fill="#05629a" stroke="#05629a" stroke-width="1.51"/><path d="M1516,801L1526,990L1671,889Z" fill="#1274b2" stroke="#1274b2" stroke-width="1.51"/><path d="M1492,-30L1456,58L1634,128Z" fill="#88a4ce" stroke="#88a4ce" stroke-width="1.51"/><path d="M1441,287L1522,366L1588,185Z" fill="#729ac8" stroke="#729ac8" stroke-width="1.51"/><path d="M1437,569L1433,637L1614,676Z" fill="#418abe" stroke="#418abe" stroke-width="1.51"/><path d="M1437,569L1614,676L1616,532Z" fill="#4489be" stroke="#4489be" stroke-width="1.51"/><path d="M1522,366L1616,532L1633,375Z" fill="#5d90c1" stroke="#5d90c1" stroke-width="1.51"/><path d="M1456,58L1588,185L1634,128Z" fill="#829fcb" stroke="#829fcb" stroke-width="1.51"/><path d="M1505,1105L1469,1289L1609,1242Z" fill="#086298" stroke="#086298" stroke-width="1.51"/><path d="M1433,637L1516,801L1614,676Z" fill="#3184bb" stroke="#3184bb" stroke-width="1.51"/><path d="M1522,366L1437,569L1616,532Z" fill="#5690c2" stroke="#5690c2" stroke-width="1.51"/><path d="M1431,-248L1492,-30L1583,-218Z" fill="#97b0d5" stroke="#97b0d5" stroke-width="1.51"/><path d="M1456,58L1380,233L1588,185Z" fill="#82a2cd" stroke="#82a2cd" stroke-width="1.51"/><path d="M1380,233L1441,287L1588,185Z" fill="#799fcb" stroke="#799fcb" stroke-width="1.51"/><path d="M1368,370L1341,535L1437,569Z" fill="#5b98c6" stroke="#5b98c6" stroke-width="1.51"/><path d="M1350,135L1380,233L1456,58Z" fill="#86a8cf" stroke="#86a8cf" stroke-width="1.51"/><path d="M1431,-248L1290,-116L1492,-30Z" fill="#99b4d6" stroke="#99b4d6" stroke-width="1.51"/><path d="M1389,1234L1469,1289L1505,1105Z" fill="#11669b" stroke="#11669b" stroke-width="1.51"/><path d="M1368,370L1437,569L1522,366Z" fill="#6197c6" stroke="#6197c6" stroke-width="1.51"/><path d="M1350,1021L1505,1105L1526,990Z" fill="#1370ab" stroke="#1370ab" stroke-width="1.51"/><path d="M1351,892L1350,1021L1526,990Z" fill="#1977b2" stroke="#1977b2" stroke-width="1.51"/><path d="M1516,801L1351,892L1526,990Z" fill="#1b79b5" stroke="#1b79b5" stroke-width="1.51"/><path d="M1350,1021L1359,1095L1505,1105Z" fill="#1771a9" stroke="#1771a9" stroke-width="1.51"/><path d="M1433,637L1302,696L1516,801Z" fill="#3589be" stroke="#3589be" stroke-width="1.51"/><path d="M1441,287L1368,370L1522,366Z" fill="#6d9bc9" stroke="#6d9bc9" stroke-width="1.51"/><path d="M1359,1095L1389,1234L1505,1105Z" fill="#156da3" stroke="#156da3" stroke-width="1.51"/><path d="M1302,696L1351,892L1516,801Z" fill="#2b85bb" stroke="#2b85bb" stroke-width="1.51"/><path d="M1300,-199L1290,-116L1431,-248Z" fill="#9ebada" stroke="#9ebada" stroke-width="1.51"/><path d="M1389,1234L1207,1345L1469,1289Z" fill="#186492" stroke="#186492" stroke-width="1.51"/><path d="M1290,-116L1456,58L1492,-30Z" fill="#92b0d4" stroke="#92b0d4" stroke-width="1.51"/><path d="M1204,-257L1300,-199L1431,-248Z" fill="#a1bddb" stroke="#a1bddb" stroke-width="1.51"/><path d="M1290,-116L1350,135L1456,58Z" fill="#90afd3" stroke="#90afd3" stroke-width="1.51"/><path d="M1341,535L1433,637L1437,569Z" fill="#4d92c2" stroke="#4d92c2" stroke-width="1.51"/><path d="M1380,233L1368,370L1441,287Z" fill="#75a0cb" stroke="#75a0cb" stroke-width="1.51"/><path d="M1341,535L1302,696L1433,637Z" fill="#4892c2" stroke="#4892c2" stroke-width="1.51"/><path d="M1290,-116L1203,-84L1350,135Z" fill="#97b7d7" stroke="#97b7d7" stroke-width="1.51"/><path d="M1203,-84L1214,139L1350,135Z" fill="#92b3d5" stroke="#92b3d5" stroke-width="1.51"/><path d="M1234,270L1368,370L1380,233Z" fill="#78a5cd" stroke="#78a5cd" stroke-width="1.51"/><path d="M1359,1095L1205,1150L1389,1234Z" fill="#1e72a5" stroke="#1e72a5" stroke-width="1.51"/><path d="M1205,1150L1207,1345L1389,1234Z" fill="#1f6d9b" stroke="#1f6d9b" stroke-width="1.51"/><path d="M1302,696L1160,810L1351,892Z" fill="#328bbe" stroke="#328bbe" stroke-width="1.51"/><path d="M1133,392L1341,535L1368,370Z" fill="#68a0ca" stroke="#68a0ca" stroke-width="1.51"/><path d="M1350,135L1234,270L1380,233Z" fill="#81a8cf" stroke="#81a8cf" stroke-width="1.51"/><path d="M1214,139L1234,270L1350,135Z" fill="#87add2" stroke="#87add2" stroke-width="1.51"/><path d="M1151,964L1350,1021L1351,892Z" fill="#227eb7" stroke="#227eb7" stroke-width="1.51"/><path d="M1234,270L1133,392L1368,370Z" fill="#76a6ce" stroke="#76a6ce" stroke-width="1.51"/><path d="M114,-258L386,-216L561,-230Z" fill="#e5e2ef" stroke="#e5e2ef" stroke-width="1.51"/><path d="M1216,688L1302,696L1341,535Z" fill="#4895c4" stroke="#4895c4" stroke-width="1.51"/><path d="M1350,1021L1205,1150L1359,1095Z" fill="#1f76ab" stroke="#1f76ab" stroke-width="1.51"/><path d="M1139,569L1216,688L1341,535Z" fill="#539ac6" stroke="#539ac6" stroke-width="1.51"/><path d="M1133,392L1139,569L1341,535Z" fill="#64a1ca" stroke="#64a1ca" stroke-width="1.51"/><path d="M1151,964L1205,1150L1350,1021Z" fill="#287cb0" stroke="#287cb0" stroke-width="1.51"/><path d="M1160,810L1151,964L1351,892Z" fill="#3186bc" stroke="#3186bc" stroke-width="1.51"/><path d="M1216,688L1160,810L1302,696Z" fill="#3e92c1" stroke="#3e92c1" stroke-width="1.51"/><path d="M1203,-84L1290,-116L1300,-199Z" fill="#9ebdda" stroke="#9ebdda" stroke-width="1.51"/><path d="M1204,-257L1203,-84L1300,-199Z" fill="#a2bfdc" stroke="#a2bfdc" stroke-width="1.51"/><path d="M1045,-245L1203,-84L1204,-257Z" fill="#aac4de" stroke="#aac4de" stroke-width="1.51"/><path d="M1151,964L1054,1112L1205,1150Z" fill="#357eb0" stroke="#357eb0" stroke-width="1.51"/><path d="M1205,1150L1033,1322L1207,1345Z" fill="#2f6f99" stroke="#2f6f99" stroke-width="1.51"/><path d="M1203,-84L1041,-27L1214,139Z" fill="#9ebbd9" stroke="#9ebbd9" stroke-width="1.51"/><path d="M1041,-27L1034,96L1214,139Z" fill="#9ebad9" stroke="#9ebad9" stroke-width="1.51"/><path d="M1214,139L1019,244L1234,270Z" fill="#8bb0d3" stroke="#8bb0d3" stroke-width="1.51"/><path d="M1019,244L1087,340L1234,270Z" fill="#87afd2" stroke="#87afd2" stroke-width="1.51"/><path d="M1087,340L1133,392L1234,270Z" fill="#7eabd0" stroke="#7eabd0" stroke-width="1.51"/><path d="M561,-230L701,-200L933,-242Z" fill="#cbd5e8" stroke="#cbd5e8" stroke-width="1.51"/><path d="M1054,1112L1033,1322L1205,1150Z" fill="#3777a5" stroke="#3777a5" stroke-width="1.51"/><path d="M1034,96L1019,244L1214,139Z" fill="#97b6d7" stroke="#97b6d7" stroke-width="1.51"/><path d="M1036,705L1160,810L1216,688Z" fill="#4895c4" stroke="#4895c4" stroke-width="1.51"/><path d="M1139,569L1036,705L1216,688Z" fill="#559bc6" stroke="#559bc6" stroke-width="1.51"/><path d="M1045,-245L1041,-27L1203,-84Z" fill="#aac3de" stroke="#aac3de" stroke-width="1.51"/><path d="M1133,392L1013,513L1139,569Z" fill="#6fa6cd" stroke="#6fa6cd" stroke-width="1.51"/><path d="M979,956L1054,1112L1151,964Z" fill="#4084b8" stroke="#4084b8" stroke-width="1.51"/><path d="M1024,792L979,956L1151,964Z" fill="#468cbf" stroke="#468cbf" stroke-width="1.51"/><path d="M1024,792L1151,964L1160,810Z" fill="#418dc0" stroke="#418dc0" stroke-width="1.51"/><path d="M1036,705L1024,792L1160,810Z" fill="#4c95c4" stroke="#4c95c4" stroke-width="1.51"/><path d="M1013,513L1036,705L1139,569Z" fill="#64a1cb" stroke="#64a1cb" stroke-width="1.51"/><path d="M1087,340L1013,513L1133,392Z" fill="#7aaad0" stroke="#7aaad0" stroke-width="1.51"/><path d="M1013,513L909,595L1036,705Z" fill="#6aa4cc" stroke="#6aa4cc" stroke-width="1.51"/><path d="M933,-242L885,-50L1041,-27Z" fill="#b4c9e1" stroke="#b4c9e1" stroke-width="1.51"/><path d="M933,-242L1041,-27L1045,-245Z" fill="#b4c9e2" stroke="#b4c9e2" stroke-width="1.51"/><path d="M888,1139L1033,1322L1054,1112Z" fill="#437ca8" stroke="#437ca8" stroke-width="1.51"/><path d="M916,396L1013,513L1087,340Z" fill="#80add2" stroke="#80add2" stroke-width="1.51"/><path d="M1019,244L926,289L1087,340Z" fill="#8fb3d5" stroke="#8fb3d5" stroke-width="1.51"/><path d="M926,289L916,396L1087,340Z" fill="#8bb2d4" stroke="#8bb2d4" stroke-width="1.51"/><path d="M893,823L979,956L1024,792Z" fill="#5194c3" stroke="#5194c3" stroke-width="1.51"/><path d="M888,1139L886,1320L1033,1322Z" fill="#4578a0" stroke="#4578a0" stroke-width="1.51"/><path d="M897,81L1019,244L1034,96Z" fill="#a1bbda" stroke="#a1bbda" stroke-width="1.51"/><path d="M897,81L1034,96L1041,-27Z" fill="#a7bfdc" stroke="#a7bfdc" stroke-width="1.51"/><path d="M979,956L888,1139L1054,1112Z" fill="#4885b5" stroke="#4885b5" stroke-width="1.51"/><path d="M885,-50L897,81L1041,-27Z" fill="#aec4df" stroke="#aec4df" stroke-width="1.51"/><path d="M909,595L870,662L1036,705Z" fill="#67a2cc" stroke="#67a2cc" stroke-width="1.51"/><path d="M893,823L1024,792L1036,705Z" fill="#5599c6" stroke="#5599c6" stroke-width="1.51"/><path d="M897,81L926,289L1019,244Z" fill="#9db9d9" stroke="#9db9d9" stroke-width="1.51"/><path d="M870,662L893,823L1036,705Z" fill="#5e9ec8" stroke="#5e9ec8" stroke-width="1.51"/><path d="M861,941L888,1139L979,956Z" fill="#508abb" stroke="#508abb" stroke-width="1.51"/><path d="M916,396L909,595L1013,513Z" fill="#7babd1" stroke="#7babd1" stroke-width="1.51"/><path d="M897,81L776,262L926,289Z" fill="#a2bcdb" stroke="#a2bcdb" stroke-width="1.51"/><path d="M893,823L861,941L979,956Z" fill="#5591c3" stroke="#5591c3" stroke-width="1.51"/><path d="M394,1287L233,1318L585,1312Z" fill="#6f84a4" stroke="#6f84a4" stroke-width="1.51"/><path d="M861,941L788,1099L888,1139Z" fill="#5689b9" stroke="#5689b9" stroke-width="1.51"/><path d="M723,519L909,595L916,396Z" fill="#82afd2" stroke="#82afd2" stroke-width="1.51"/><path d="M776,262L916,396L926,289Z" fill="#97b7d7" stroke="#97b7d7" stroke-width="1.51"/><path d="M701,-200L885,-50L933,-242Z" fill="#c0cfe5" stroke="#c0cfe5" stroke-width="1.51"/><path d="M885,-50L791,46L897,81Z" fill="#b3c6e0" stroke="#b3c6e0" stroke-width="1.51"/><path d="M701,-200L771,-25L885,-50Z" fill="#c0cee5" stroke="#c0cee5" stroke-width="1.51"/><path d="M788,1099L708,1332L886,1320Z" fill="#547da4" stroke="#547da4" stroke-width="1.51"/><path d="M788,1099L886,1320L888,1139Z" fill="#5181ac" stroke="#5181ac" stroke-width="1.51"/><path d="M870,662L767,858L893,823Z" fill="#629ec8" stroke="#629ec8" stroke-width="1.51"/><path d="M791,46L776,262L897,81Z" fill="#afc1de" stroke="#afc1de" stroke-width="1.51"/><path d="M776,262L692,436L916,396Z" fill="#98b7d8" stroke="#98b7d8" stroke-width="1.51"/><path d="M692,436L723,519L916,396Z" fill="#8fb3d5" stroke="#8fb3d5" stroke-width="1.51"/><path d="M767,858L861,941L893,823Z" fill="#5e96c5" stroke="#5e96c5" stroke-width="1.51"/><path d="M723,519L870,662L909,595Z" fill="#79aacf" stroke="#79aacf" stroke-width="1.51"/><path d="M764,940L788,1099L861,941Z" fill="#5c8fbf" stroke="#5c8fbf" stroke-width="1.51"/><path d="M686,671L767,858L870,662Z" fill="#6da3cc" stroke="#6da3cc" stroke-width="1.51"/><path d="M771,-25L791,46L885,-50Z" fill="#b9c9e2" stroke="#b9c9e2" stroke-width="1.51"/><path d="M767,858L764,940L861,941Z" fill="#5f94c5" stroke="#5f94c5" stroke-width="1.51"/><path d="M723,519L686,671L870,662Z" fill="#7cabd0" stroke="#7cabd0" stroke-width="1.51"/><path d="M19,1294L-201,1329L233,1318Z" fill="#8190aa" stroke="#8190aa" stroke-width="1.51"/><path d="M686,671L617,802L767,858Z" fill="#71a3cc" stroke="#71a3cc" stroke-width="1.51"/><path d="M701,-200L604,-32L771,-25Z" fill="#c7d1e6" stroke="#c7d1e6" stroke-width="1.51"/><path d="M553,1191L708,1332L788,1099Z" fill="#5f84ac" stroke="#5f84ac" stroke-width="1.51"/><path d="M764,940L609,970L788,1099Z" fill="#6391c0" stroke="#6391c0" stroke-width="1.51"/><path d="M571,62L611,208L791,46Z" fill="#bdc8e1" stroke="#bdc8e1" stroke-width="1.51"/><path d="M771,-25L604,-32L791,46Z" fill="#c0cce4" stroke="#c0cce4" stroke-width="1.51"/><path d="M604,-32L571,62L791,46Z" fill="#c3cce4" stroke="#c3cce4" stroke-width="1.51"/><path d="M611,208L776,262L791,46Z" fill="#b2c3de" stroke="#b2c3de" stroke-width="1.51"/><path d="M611,208L692,436L776,262Z" fill="#a7bddc" stroke="#a7bddc" stroke-width="1.51"/><path d="M609,970L553,1191L788,1099Z" fill="#678eba" stroke="#678eba" stroke-width="1.51"/><path d="M553,1191L585,1312L708,1332Z" fill="#6180a4" stroke="#6180a4" stroke-width="1.51"/><path d="M609,970L764,940L767,858Z" fill="#6796c6" stroke="#6796c6" stroke-width="1.51"/><path d="M617,802L609,970L767,858Z" fill="#6e9cc9" stroke="#6e9cc9" stroke-width="1.51"/><path d="M611,208L532,444L692,436Z" fill="#a6bddb" stroke="#a6bddb" stroke-width="1.51"/><path d="M692,436L607,519L723,519Z" fill="#93b5d6" stroke="#93b5d6" stroke-width="1.51"/><path d="M607,519L686,671L723,519Z" fill="#89b0d4" stroke="#89b0d4" stroke-width="1.51"/><path d="M607,519L540,664L686,671Z" fill="#89afd3" stroke="#89afd3" stroke-width="1.51"/><path d="M561,-230L604,-32L701,-200Z" fill="#cfd6e9" stroke="#cfd6e9" stroke-width="1.51"/><path d="M452,285L532,444L611,208Z" fill="#b1c2de" stroke="#b1c2de" stroke-width="1.51"/><path d="M540,664L617,802L686,671Z" fill="#7eaacf" stroke="#7eaacf" stroke-width="1.51"/><path d="M532,444L607,519L692,436Z" fill="#9ab8d8" stroke="#9ab8d8" stroke-width="1.51"/><path d="M445,1031L426,1128L553,1191Z" fill="#7392bb" stroke="#7392bb" stroke-width="1.51"/><path d="M561,-230L470,-106L604,-32Z" fill="#d3d7e9" stroke="#d3d7e9" stroke-width="1.51"/><path d="M445,1031L553,1191L609,970Z" fill="#7193be" stroke="#7193be" stroke-width="1.51"/><path d="M571,62L420,90L611,208Z" fill="#c5cbe3" stroke="#c5cbe3" stroke-width="1.51"/><path d="M440,830L609,970L617,802Z" fill="#78a0cb" stroke="#78a0cb" stroke-width="1.51"/><path d="M540,664L440,830L617,802Z" fill="#7fa9d0" stroke="#7fa9d0" stroke-width="1.51"/><path d="M385,552L540,664L607,519Z" fill="#95b5d6" stroke="#95b5d6" stroke-width="1.51"/><path d="M532,444L385,552L607,519Z" fill="#9eb9d9" stroke="#9eb9d9" stroke-width="1.51"/><path d="M440,830L445,1031L609,970Z" fill="#789bc9" stroke="#789bc9" stroke-width="1.51"/><path d="M420,90L452,285L611,208Z" fill="#c0c9e2" stroke="#c0c9e2" stroke-width="1.51"/><path d="M420,711L440,830L540,664Z" fill="#86add2" stroke="#86add2" stroke-width="1.51"/><path d="M470,-106L571,62L604,-32Z" fill="#ced2e7" stroke="#ced2e7" stroke-width="1.51"/><path d="M470,-106L420,90L571,62Z" fill="#cfd2e7" stroke="#cfd2e7" stroke-width="1.51"/><path d="M553,1191L394,1287L585,1312Z" fill="#6a85a8" stroke="#6a85a8" stroke-width="1.51"/><path d="M-218,-211L-26,-219L114,-258Z" fill="#f6eff7" stroke="#f6eff7" stroke-width="1.51"/><path d="M452,285L399,391L532,444Z" fill="#b0c1de" stroke="#b0c1de" stroke-width="1.51"/><path d="M386,-216L470,-106L561,-230Z" fill="#dbdcec" stroke="#dbdcec" stroke-width="1.51"/><path d="M426,1128L394,1287L553,1191Z" fill="#728cb1" stroke="#728cb1" stroke-width="1.51"/><path d="M385,552L420,711L540,664Z" fill="#92b4d6" stroke="#92b4d6" stroke-width="1.51"/><path d="M440,830L340,887L445,1031Z" fill="#80a1cc" stroke="#80a1cc" stroke-width="1.51"/><path d="M399,391L385,552L532,444Z" fill="#a7bedc" stroke="#a7bedc" stroke-width="1.51"/><path d="M114,-258L284,-184L386,-216Z" fill="#e9e5f1" stroke="#e9e5f1" stroke-width="1.51"/><path d="M420,90L281,255L452,285Z" fill="#c6cce4" stroke="#c6cce4" stroke-width="1.51"/><path d="M386,-216L298,-114L470,-106Z" fill="#dfdded" stroke="#dfdded" stroke-width="1.51"/><path d="M324,62L420,90L470,-106Z" fill="#d5d5e8" stroke="#d5d5e8" stroke-width="1.51"/><path d="M298,-114L324,62L470,-106Z" fill="#dcdaeb" stroke="#dcdaeb" stroke-width="1.51"/><path d="M324,62L281,255L420,90Z" fill="#d0d1e7" stroke="#d0d1e7" stroke-width="1.51"/><path d="M340,887L271,935L445,1031Z" fill="#839fcb" stroke="#839fcb" stroke-width="1.51"/><path d="M281,255L399,391L452,285Z" fill="#bdc7e1" stroke="#bdc7e1" stroke-width="1.51"/><path d="M385,552L289,709L420,711Z" fill="#96b6d6" stroke="#96b6d6" stroke-width="1.51"/><path d="M420,711L289,709L440,830Z" fill="#8bafd3" stroke="#8bafd3" stroke-width="1.51"/><path d="M289,709L340,887L440,830Z" fill="#8aabd1" stroke="#8aabd1" stroke-width="1.51"/><path d="M241,1097L426,1128L445,1031Z" fill="#7d97bf" stroke="#7d97bf" stroke-width="1.51"/><path d="M271,935L241,1097L445,1031Z" fill="#829dc6" stroke="#829dc6" stroke-width="1.51"/><path d="M241,1097L394,1287L426,1128Z" fill="#7b92b7" stroke="#7b92b7" stroke-width="1.51"/><path d="M259,440L385,552L399,391Z" fill="#aec1dd" stroke="#aec1dd" stroke-width="1.51"/><path d="M241,1097L233,1318L394,1287Z" fill="#7a8eb0" stroke="#7a8eb0" stroke-width="1.51"/><path d="M254,531L289,709L385,552Z" fill="#a0bbda" stroke="#a0bbda" stroke-width="1.51"/><path d="M259,440L254,531L385,552Z" fill="#abc0dd" stroke="#abc0dd" stroke-width="1.51"/><path d="M284,-184L298,-114L386,-216Z" fill="#e4e1ee" stroke="#e4e1ee" stroke-width="1.51"/><path d="M281,255L259,440L399,391Z" fill="#bac7e1" stroke="#bac7e1" stroke-width="1.51"/><path d="M166,1167L233,1318L241,1097Z" fill="#8095b7" stroke="#8095b7" stroke-width="1.51"/><path d="M91,1282L19,1294L233,1318Z" fill="#7e8faa" stroke="#7e8faa" stroke-width="1.51"/><path d="M102,853L271,935L289,709Z" fill="#8fadd3" stroke="#8fadd3" stroke-width="1.51"/><path d="M163,137L281,255L324,62Z" fill="#d3d4e8" stroke="#d3d4e8" stroke-width="1.51"/><path d="M298,-114L177,-64L324,62Z" fill="#e0dded" stroke="#e0dded" stroke-width="1.51"/><path d="M289,709L271,935L340,887Z" fill="#8baad0" stroke="#8baad0" stroke-width="1.51"/><path d="M169,978L241,1097L271,935Z" fill="#86a1c9" stroke="#86a1c9" stroke-width="1.51"/><path d="M180,254L259,440L281,255Z" fill="#c3cce4" stroke="#c3cce4" stroke-width="1.51"/><path d="M254,531L145,673L289,709Z" fill="#9fbcda" stroke="#9fbcda" stroke-width="1.51"/><path d="M177,-64L163,137L324,62Z" fill="#dcdaeb" stroke="#dcdaeb" stroke-width="1.51"/><path d="M166,543L145,673L254,531Z" fill="#a8c1dd" stroke="#a8c1dd" stroke-width="1.51"/><path d="M180,254L100,397L259,440Z" fill="#c0cce3" stroke="#c0cce3" stroke-width="1.51"/><path d="M163,137L180,254L281,255Z" fill="#ced2e7" stroke="#ced2e7" stroke-width="1.51"/><path d="M145,673L102,853L289,709Z" fill="#96b6d7" stroke="#96b6d7" stroke-width="1.51"/><path d="M284,-184L177,-64L298,-114Z" fill="#e5e1ef" stroke="#e5e1ef" stroke-width="1.51"/><path d="M102,853L169,978L271,935Z" fill="#8ca8d0" stroke="#8ca8d0" stroke-width="1.51"/><path d="M114,-258L177,-64L284,-184Z" fill="#eae5f1" stroke="#eae5f1" stroke-width="1.51"/><path d="M166,543L254,531L259,440Z" fill="#aec3de" stroke="#aec3de" stroke-width="1.51"/><path d="M166,1167L91,1282L233,1318Z" fill="#7e91af" stroke="#7e91af" stroke-width="1.51"/><path d="M100,397L166,543L259,440Z" fill="#b6c8e1" stroke="#b6c8e1" stroke-width="1.51"/><path d="M169,978L166,1167L241,1097Z" fill="#869dc3" stroke="#869dc3" stroke-width="1.51"/><path d="M-8,702L102,853L145,673Z" fill="#9bbad9" stroke="#9bbad9" stroke-width="1.51"/><path d="M17,583L145,673L166,543Z" fill="#aac2de" stroke="#aac2de" stroke-width="1.51"/><path d="M32,1104L166,1167L169,978Z" fill="#899fc5" stroke="#899fc5" stroke-width="1.51"/><path d="M114,-258L-26,-219L177,-64Z" fill="#efeaf4" stroke="#efeaf4" stroke-width="1.51"/><path d="M-26,-219L-38,-31L177,-64Z" fill="#eee8f3" stroke="#eee8f3" stroke-width="1.51"/><path d="M-13,70L163,137L177,-64Z" fill="#e1deee" stroke="#e1deee" stroke-width="1.51"/><path d="M-38,-31L-13,70L177,-64Z" fill="#e7e3f0" stroke="#e7e3f0" stroke-width="1.51"/><path d="M163,137L-51,216L180,254Z" fill="#d5d7e9" stroke="#d5d7e9" stroke-width="1.51"/><path d="M-51,216L100,397L180,254Z" fill="#cdd3e7" stroke="#cdd3e7" stroke-width="1.51"/><path d="M100,397L17,583L166,543Z" fill="#b4c8e1" stroke="#b4c8e1" stroke-width="1.51"/><path d="M102,853L34,855L169,978Z" fill="#92add2" stroke="#92add2" stroke-width="1.51"/><path d="M34,855L-32,953L169,978Z" fill="#92abd2" stroke="#92abd2" stroke-width="1.51"/><path d="M-32,953L32,1104L169,978Z" fill="#8fa6cc" stroke="#8fa6cc" stroke-width="1.51"/><path d="M-13,70L-51,216L163,137Z" fill="#dddcec" stroke="#dddcec" stroke-width="1.51"/><path d="M32,1104L91,1282L166,1167Z" fill="#869abb" stroke="#869abb" stroke-width="1.51"/><path d="M-51,216L-30,384L100,397Z" fill="#cbd3e8" stroke="#cbd3e8" stroke-width="1.51"/><path d="M-8,702L34,855L102,853Z" fill="#99b6d8" stroke="#99b6d8" stroke-width="1.51"/><path d="M17,583L-8,702L145,673Z" fill="#a7c0dd" stroke="#a7c0dd" stroke-width="1.51"/><path d="M32,1104L19,1294L91,1282Z" fill="#8598b5" stroke="#8598b5" stroke-width="1.51"/><path d="M-30,384L17,583L100,397Z" fill="#bdcde4" stroke="#bdcde4" stroke-width="1.51"/><path d="M-30,384L-113,415L17,583Z" fill="#becee5" stroke="#becee5" stroke-width="1.51"/><path d="M-113,415L-159,536L17,583Z" fill="#bacde4" stroke="#bacde4" stroke-width="1.51"/><path d="M-32,953L-119,1030L32,1104Z" fill="#91a7cc" stroke="#91a7cc" stroke-width="1.51"/><path d="M-155,1190L19,1294L32,1104Z" fill="#8a9cbb" stroke="#8a9cbb" stroke-width="1.51"/><path d="M-119,1030L-155,1190L32,1104Z" fill="#8fa3c5" stroke="#8fa3c5" stroke-width="1.51"/><path d="M-185,795L-32,953L34,855Z" fill="#99b3d7" stroke="#99b3d7" stroke-width="1.51"/><path d="M-139,727L-185,795L34,855Z" fill="#9ebbda" stroke="#9ebbda" stroke-width="1.51"/><path d="M-8,702L-139,727L34,855Z" fill="#9ebcda" stroke="#9ebcda" stroke-width="1.51"/><path d="M-159,536L-139,727L-8,702Z" fill="#abc5df" stroke="#abc5df" stroke-width="1.51"/><path d="M-159,536L-8,702L17,583Z" fill="#afc6e0" stroke="#afc6e0" stroke-width="1.51"/><path d="M-155,1190L-201,1329L19,1294Z" fill="#8897b2" stroke="#8897b2" stroke-width="1.51"/><path d="M-218,-211L-180,-7L-38,-31Z" fill="#f2ecf5" stroke="#f2ecf5" stroke-width="1.51"/><path d="M-51,216L-113,415L-30,384Z" fill="#cdd5e9" stroke="#cdd5e9" stroke-width="1.51"/><path d="M-218,-211L-38,-31L-26,-219Z" fill="#f4eef6" stroke="#f4eef6" stroke-width="1.51"/><path d="M-204,99L-51,216L-13,70Z" fill="#e2e0ee" stroke="#e2e0ee" stroke-width="1.51"/><path d="M-38,-31L-180,-7L-13,70Z" fill="#eae5f1" stroke="#eae5f1" stroke-width="1.51"/><path d="M-180,-7L-204,99L-13,70Z" fill="#e9e5f1" stroke="#e9e5f1" stroke-width="1.51"/><path d="M-204,99L-202,199L-51,216Z" fill="#e0dfee" stroke="#e0dfee" stroke-width="1.51"/><path d="M-202,199L-113,415L-51,216Z" fill="#d5daeb" stroke="#d5daeb" stroke-width="1.51"/><path d="M-185,795L-119,1030L-32,953Z" fill="#98b0d5" stroke="#98b0d5" stroke-width="1.51"/><path d="M-202,199L-159,536L-113,415Z" fill="#cbd5e8" stroke="#cbd5e8" stroke-width="1.51"/><path d="M-185,795L-155,1190L-119,1030Z" fill="#95abcf" stroke="#95abcf" stroke-width="1.51"/><path d="M-159,536L-185,795L-139,727Z" fill="#aac4de" stroke="#aac4de" stroke-width="1.51"/><path d="M-185,795L-201,1329L-155,1190Z" fill="#93a7c7" stroke="#93a7c7" stroke-width="1.51"/><path d="M-202,199L-185,795L-159,536Z" fill="#bdcfe5" stroke="#bdcfe5" stroke-width="1.51"/><path d="M-218,-211L-204,99L-180,-7Z" fill="#f2ecf5" stroke="#f2ecf5" stroke-width="1.51"/><path d="M-202,199L-201,1329L-185,795Z" fill="#a2bfdc" stroke="#a2bfdc" stroke-width="1.51"/><path d="M-202,199L-218,-211L-201,1329Z" fill="#c6d4e8" stroke="#c6d4e8" stroke-width="1.51"/><path d="M-204,99L-218,-211L-202,199Z" fill="#ede8f3" stroke="#ede8f3" stroke-width="1.51"/></svg>
