<svg xmlns="http://www.w3.org/2000/svg" width="1920" height="1080"><path d="M233,1318L-201,1329L708,1332Z" fill="#7b808d" stroke="#7b808d" stroke-width="1.51"/><path d="M114,-258L561,-230L933,-242Z" fill="#ceecc4" stroke="#ceecc4" stroke-width="1.51"/><path d="M933,-242L1045,-245L1204,-257Z" fill="#a9d3cb" stroke="#a9d3cb" stroke-width="1.51"/><path d="M114,-258L933,-242L1204,-257Z" fill="#bae2c9" stroke="#bae2c9" stroke-width="1.51"/><path d="M1033,1322L886,1320L1207,1345Z" fill="#2c6392" stroke="#2c6392" stroke-width="1.51"/><path d="M886,1320L708,1332L1207,1345Z" fill="#336991" stroke="#336991" stroke-width="1.51"/><path d="M1431,-248L1583,-218L1835,-226Z" fill="#9da5bb" stroke="#9da5bb" stroke-width="1.51"/><path d="M1815,1290L1469,1289L1923,1331Z" fill="#1c3582" stroke="#1c3582" stroke-width="1.51"/><path d="M1469,1289L1207,1345L1923,1331Z" fill="#1a4286" stroke="#1a4286" stroke-width="1.51"/><path d="M1204,-257L1431,-248L2029,-238Z" fill="#9eaabf" stroke="#9eaabf" stroke-width="1.51"/><path d="M1431,-248L1835,-226L2029,-238Z" fill="#9c9ab7" stroke="#9c9ab7" stroke-width="1.51"/><path d="M1835,-226L1912,-217L2029,-238Z" fill="#978fac" stroke="#978fac" stroke-width="1.51"/><path d="M2048,114L2033,215L2079,399Z" fill="#647993" stroke="#647993" stroke-width="1.51"/><path d="M2083,1010L1939,1086L2085,1195Z" fill="#1d3385" stroke="#1d3385" stroke-width="1.51"/><path d="M2048,114L2079,399L2131,484Z" fill="#517391" stroke="#517391" stroke-width="1.51"/><path d="M2078,-95L2048,114L2131,484Z" fill="#6e7d8f" stroke="#6e7d8f" stroke-width="1.51"/><path d="M1893,688L1981,813L2136,710Z" fill="#255d9b" stroke="#255d9b" stroke-width="1.51"/><path d="M1907,591L1893,688L2136,710Z" fill="#2e649f" stroke="#2e649f" stroke-width="1.51"/><path d="M1981,813L2072,873L2136,710Z" fill="#205392" stroke="#205392" stroke-width="1.51"/><path d="M2131,484L1907,591L2136,710Z" fill="#2f6697" stroke="#2f6697" stroke-width="1.51"/><path d="M2072,873L2083,1010L2136,710Z" fill="#1c4a8a" stroke="#1c4a8a" stroke-width="1.51"/><path d="M2083,1010L2085,1195L2136,710Z" fill="#1a3d84" stroke="#1a3d84" stroke-width="1.51"/><path d="M2079,399L1943,391L2131,484Z" fill="#477096" stroke="#477096" stroke-width="1.51"/><path d="M1943,391L1907,591L2131,484Z" fill="#40709e" stroke="#40709e" stroke-width="1.51"/><path d="M1890,-6L1893,39L2048,114Z" fill="#86889e" stroke="#86889e" stroke-width="1.51"/><path d="M1981,813L1899,1017L2072,873Z" fill="#214a94" stroke="#214a94" stroke-width="1.51"/><path d="M2029,-238L1912,-217L2078,-95Z" fill="#908b9f" stroke="#908b9f" stroke-width="1.51"/><path d="M1890,-6L2048,114L2078,-95Z" fill="#868696" stroke="#868696" stroke-width="1.51"/><path d="M2033,215L1943,391L2079,399Z" fill="#547698" stroke="#547698" stroke-width="1.51"/><path d="M2072,873L1899,1017L2083,1010Z" fill="#1e418d" stroke="#1e418d" stroke-width="1.51"/><path d="M1939,1086L2043,1294L2085,1195Z" fill="#1b2b7e" stroke="#1b2b7e" stroke-width="1.51"/><path d="M1899,1017L1939,1086L2083,1010Z" fill="#213c8e" stroke="#213c8e" stroke-width="1.51"/><path d="M1909,233L1943,391L2033,215Z" fill="#627c9d" stroke="#627c9d" stroke-width="1.51"/><path d="M1912,-217L1890,-6L2078,-95Z" fill="#918b9d" stroke="#918b9d" stroke-width="1.51"/><path d="M1939,1086L1923,1331L2043,1294Z" fill="#1b2b7d" stroke="#1b2b7d" stroke-width="1.51"/><path d="M1909,233L2033,215L2048,114Z" fill="#717f99" stroke="#717f99" stroke-width="1.51"/><path d="M1893,39L1909,233L2048,114Z" fill="#7d859d" stroke="#7d859d" stroke-width="1.51"/><path d="M1815,1290L1923,1331L1939,1086Z" fill="#1e2e85" stroke="#1e2e85" stroke-width="1.51"/><path d="M1838,832L1899,1017L1981,813Z" fill="#264f9d" stroke="#264f9d" stroke-width="1.51"/><path d="M1893,39L1832,79L1909,233Z" fill="#8389a5" stroke="#8389a5" stroke-width="1.51"/><path d="M1772,1188L1815,1290L1939,1086Z" fill="#233490" stroke="#233490" stroke-width="1.51"/><path d="M1833,389L1907,591L1943,391Z" fill="#4a76a7" stroke="#4a76a7" stroke-width="1.51"/><path d="M1893,688L1838,832L1981,813Z" fill="#295da3" stroke="#295da3" stroke-width="1.51"/><path d="M1609,1242L1469,1289L1815,1290Z" fill="#1e3d8a" stroke="#1e3d8a" stroke-width="1.51"/><path d="M1835,-226L1802,-15L1890,-6Z" fill="#9791a7" stroke="#9791a7" stroke-width="1.51"/><path d="M1833,389L1764,563L1907,591Z" fill="#4277ad" stroke="#4277ad" stroke-width="1.51"/><path d="M1835,-226L1890,-6L1912,-217Z" fill="#9890aa" stroke="#9890aa" stroke-width="1.51"/><path d="M1795,1035L1772,1188L1939,1086Z" fill="#263c98" stroke="#263c98" stroke-width="1.51"/><path d="M1909,233L1833,389L1943,391Z" fill="#5b7ca5" stroke="#5b7ca5" stroke-width="1.51"/><path d="M1899,1017L1795,1035L1939,1086Z" fill="#253f97" stroke="#253f97" stroke-width="1.51"/><path d="M1791,702L1838,832L1893,688Z" fill="#2c64ab" stroke="#2c64ab" stroke-width="1.51"/><path d="M1838,832L1795,1035L1899,1017Z" fill="#26499e" stroke="#26499e" stroke-width="1.51"/><path d="M1770,207L1833,389L1909,233Z" fill="#6983a9" stroke="#6983a9" stroke-width="1.51"/><path d="M1832,79L1770,207L1909,233Z" fill="#7b89a8" stroke="#7b89a8" stroke-width="1.51"/><path d="M1791,702L1893,688L1907,591Z" fill="#3469ab" stroke="#3469ab" stroke-width="1.51"/><path d="M1764,563L1791,702L1907,591Z" fill="#3870ad" stroke="#3870ad" stroke-width="1.51"/><path d="M1890,-6L1802,-15L1893,39Z" fill="#8f8da6" stroke="#8f8da6" stroke-width="1.51"/><path d="M1802,-15L1832,79L1893,39Z" fill="#8c8ea7" stroke="#8c8ea7" stroke-width="1.51"/><path d="M1770,207L1633,375L1833,389Z" fill="#5f86ad" stroke="#5f86ad" stroke-width="1.51"/><path d="M1633,375L1764,563L1833,389Z" fill="#4d81af" stroke="#4d81af" stroke-width="1.51"/><path d="M1683,-49L1802,-15L1835,-226Z" fill="#9897aa" stroke="#9897aa" stroke-width="1.51"/><path d="M1583,-218L1683,-49L1835,-226Z" fill="#9b9eb3" stroke="#9b9eb3" stroke-width="1.51"/><path d="M1671,889L1795,1035L1838,832Z" fill="#2654a3" stroke="#2654a3" stroke-width="1.51"/><path d="M1791,702L1671,889L1838,832Z" fill="#2961aa" stroke="#2961aa" stroke-width="1.51"/><path d="M1634,128L1770,207L1832,79Z" fill="#8292aa" stroke="#8292aa" stroke-width="1.51"/><path d="M1802,-15L1634,128L1832,79Z" fill="#8a94aa" stroke="#8a94aa" stroke-width="1.51"/><path d="M1633,375L1616,532L1764,563Z" fill="#4484b2" stroke="#4484b2" stroke-width="1.51"/><path d="M1674,1036L1772,1188L1795,1035Z" fill="#26439b" stroke="#26439b" stroke-width="1.51"/><path d="M1671,889L1674,1036L1795,1035Z" fill="#2550a2" stroke="#2550a2" stroke-width="1.51"/><path d="M1683,-49L1634,128L1802,-15Z" fill="#8e99ab" stroke="#8e99ab" stroke-width="1.51"/><path d="M1772,1188L1667,1184L1815,1290Z" fill="#21388e" stroke="#21388e" stroke-width="1.51"/><path d="M1667,1184L1609,1242L1815,1290Z" fill="#203b8d" stroke="#203b8d" stroke-width="1.51"/><path d="M1674,1036L1667,1184L1772,1188Z" fill="#26429a" stroke="#26429a" stroke-width="1.51"/><path d="M1764,563L1614,676L1791,702Z" fill="#3374b0" stroke="#3374b0" stroke-width="1.51"/><path d="M1614,676L1671,889L1791,702Z" fill="#286daf" stroke="#286daf" stroke-width="1.51"/><path d="M1616,532L1614,676L1764,563Z" fill="#377db2" stroke="#377db2" stroke-width="1.51"/><path d="M1588,185L1633,375L1770,207Z" fill="#6c91ae" stroke="#6c91ae" stroke-width="1.51"/><path d="M585,1312L233,1318L708,1332Z" fill="#63788f" stroke="#63788f" stroke-width="1.51"/><path d="M1634,128L1588,185L1770,207Z" fill="#7b96ad" stroke="#7b96ad" stroke-width="1.51"/><path d="M1588,185L1522,366L1633,375Z" fill="#6193b2" stroke="#6193b2" stroke-width="1.51"/><path d="M1614,676L1516,801L1671,889Z" fill="#256fb0" stroke="#256fb0" stroke-width="1.51"/><path d="M1505,1105L1667,1184L1674,1036Z" fill="#264a9f" stroke="#264a9f" stroke-width="1.51"/><path d="M1671,889L1526,990L1674,1036Z" fill="#2458a5" stroke="#2458a5" stroke-width="1.51"/><path d="M1492,-30L1634,128L1683,-49Z" fill="#8fa0ae" stroke="#8fa0ae" stroke-width="1.51"/><path d="M1583,-218L1492,-30L1683,-49Z" fill="#99a5b0" stroke="#99a5b0" stroke-width="1.51"/><path d="M1526,990L1505,1105L1674,1036Z" fill="#2555a3" stroke="#2555a3" stroke-width="1.51"/><path d="M1505,1105L1609,1242L1667,1184Z" fill="#24469a" stroke="#24469a" stroke-width="1.51"/><path d="M1516,801L1526,990L1671,889Z" fill="#2364ab" stroke="#2364ab" stroke-width="1.51"/><path d="M1492,-30L1456,58L1634,128Z" fill="#8ca5b1" stroke="#8ca5b1" stroke-width="1.51"/><path d="M1441,287L1522,366L1588,185Z" fill="#679ab3" stroke="#679ab3" stroke-width="1.51"/><path d="M1437,569L1433,637L1614,676Z" fill="#2f87b8" stroke="#2f87b8" stroke-width="1.51"/><path d="M1437,569L1614,676L1616,532Z" fill="#3385b6" stroke="#3385b6" stroke-width="1.51"/><path d="M1522,366L1616,532L1633,375Z" fill="#4e8db3" stroke="#4e8db3" stroke-width="1.51"/><path d="M1456,58L1588,185L1634,128Z" fill="#84a0b0" stroke="#84a0b0" stroke-width="1.51"/><path d="M1505,1105L1469,1289L1609,1242Z" fill="#234897" stroke="#234897" stroke-width="1.51"/><path d="M1433,637L1516,801L1614,676Z" fill="#287eb6" stroke="#287eb6" stroke-width="1.51"/><path d="M1522,366L1437,569L1616,532Z" fill="#428fb7" stroke="#428fb7" stroke-width="1.51"/><path d="M1431,-248L1492,-30L1583,-218Z" fill="#9caeba" stroke="#9caeba" stroke-width="1.51"/><path d="M1456,58L1380,233L1588,185Z" fill="#7fa6b4" stroke="#7fa6b4" stroke-width="1.51"/><path d="M1380,233L1441,287L1588,185Z" fill="#70a1b5" stroke="#70a1b5" stroke-width="1.51"/><path d="M1368,370L1341,535L1437,569Z" fill="#419bbc" stroke="#419bbc" stroke-width="1.51"/><path d="M1350,135L1380,233L1456,58Z" fill="#83aeb7" stroke="#83aeb7" stroke-width="1.51"/><path d="M1431,-248L1290,-116L1492,-30Z" fill="#9db6ba" stroke="#9db6ba" stroke-width="1.51"/><path d="M1389,1234L1469,1289L1505,1105Z" fill="#254f9a" stroke="#254f9a" stroke-width="1.51"/><path d="M1368,370L1437,569L1522,366Z" fill="#4b99b9" stroke="#4b99b9" stroke-width="1.51"/><path d="M1350,1021L1505,1105L1526,990Z" fill="#265ea8" stroke="#265ea8" stroke-width="1.51"/><path d="M1351,892L1350,1021L1526,990Z" fill="#2469ae" stroke="#2469ae" stroke-width="1.51"/><path d="M1516,801L1351,892L1526,990Z" fill="#236db0" stroke="#236db0" stroke-width="1.51"/><path d="M1350,1021L1359,1095L1505,1105Z" fill="#285fa8" stroke="#285fa8" stroke-width="1.51"/><path d="M1433,637L1302,696L1516,801Z" fill="#2686ba" stroke="#2686ba" stroke-width="1.51"/><path d="M1441,287L1368,370L1522,366Z" fill="#5a9eb7" stroke="#5a9eb7" stroke-width="1.51"/><path d="M1359,1095L1389,1234L1505,1105Z" fill="#2957a4" stroke="#2957a4" stroke-width="1.51"/><path d="M1302,696L1351,892L1516,801Z" fill="#227fb8" stroke="#227fb8" stroke-width="1.51"/><path d="M1300,-199L1290,-116L1431,-248Z" fill="#9fbdc2" stroke="#9fbdc2" stroke-width="1.51"/><path d="M1389,1234L1207,1345L1469,1289Z" fill="#205292" stroke="#205292" stroke-width="1.51"/><path d="M1290,-116L1456,58L1492,-30Z" fill="#96b3b5" stroke="#96b3b5" stroke-width="1.51"/><path d="M1204,-257L1300,-199L1431,-248Z" fill="#a1c0c7" stroke="#a1c0c7" stroke-width="1.51"/><path d="M1290,-116L1350,135L1456,58Z" fill="#91b5b7" stroke="#91b5b7" stroke-width="1.51"/><path d="M1341,535L1433,637L1437,569Z" fill="#3393bc" stroke="#3393bc" stroke-width="1.51"/><path d="M1380,233L1368,370L1441,287Z" fill="#63a5b8" stroke="#63a5b8" stroke-width="1.51"/><path d="M1341,535L1302,696L1433,637Z" fill="#2e93be" stroke="#2e93be" stroke-width="1.51"/><path d="M1290,-116L1203,-84L1350,135Z" fill="#97bfba" stroke="#97bfba" stroke-width="1.51"/><path d="M1203,-84L1214,139L1350,135Z" fill="#8ebfbb" stroke="#8ebfbb" stroke-width="1.51"/><path d="M1234,270L1368,370L1380,233Z" fill="#65abbb" stroke="#65abbb" stroke-width="1.51"/><path d="M1359,1095L1205,1150L1389,1234Z" fill="#2b5da8" stroke="#2b5da8" stroke-width="1.51"/><path d="M1205,1150L1207,1345L1389,1234Z" fill="#255c9d" stroke="#255c9d" stroke-width="1.51"/><path d="M1302,696L1160,810L1351,892Z" fill="#2089bd" stroke="#2089bd" stroke-width="1.51"/><path d="M1133,392L1341,535L1368,370Z" fill="#4aa7bf" stroke="#4aa7bf" stroke-width="1.51"/><path d="M1350,135L1234,270L1380,233Z" fill="#76b0ba" stroke="#76b0ba" stroke-width="1.51"/><path d="M1214,139L1234,270L1350,135Z" fill="#7db8bc" stroke="#7db8bc" stroke-width="1.51"/><path d="M1151,964L1350,1021L1351,892Z" fill="#2375b3" stroke="#2375b3" stroke-width="1.51"/><path d="M1234,270L1133,392L1368,370Z" fill="#5aafbe" stroke="#5aafbe" stroke-width="1.51"/><path d="M114,-258L386,-216L561,-230Z" fill="#e2f3c1" stroke="#e2f3c1" stroke-width="1.51"/><path d="M1216,688L1302,696L1341,535Z" fill="#2a98c0" stroke="#2a98c0" stroke-width="1.51"/><path d="M1350,1021L1205,1150L1359,1095Z" fill="#2965ac" stroke="#2965ac" stroke-width="1.51"/><path d="M1139,569L1216,688L1341,535Z" fill="#30a0c2" stroke="#30a0c2" stroke-width="1.51"/><path d="M1133,392L1139,569L1341,535Z" fill="#40a9c2" stroke="#40a9c2" stroke-width="1.51"/><path d="M1151,964L1205,1150L1350,1021Z" fill="#2a6fb0" stroke="#2a6fb0" stroke-width="1.51"/><path d="M1160,810L1151,964L1351,892Z" fill="#2582b8" stroke="#2582b8" stroke-width="1.51"/><path d="M1216,688L1160,810L1302,696Z" fill="#2294c0" stroke="#2294c0" stroke-width="1.51"/><path d="M1203,-84L1290,-116L1300,-199Z" fill="#9fc3c0" stroke="#9fc3c0" stroke-width="1.51"/><path d="M1204,-257L1203,-84L1300,-199Z" fill="#a1c6c4" stroke="#a1c6c4" stroke-width="1.51"/><path d="M1045,-245L1203,-84L1204,-257Z" fill="#a4ccc6" stroke="#a4ccc6" stroke-width="1.51"/><path d="M1151,964L1054,1112L1205,1150Z" fill="#3272af" stroke="#3272af" stroke-width="1.51"/><path d="M1205,1150L1033,1322L1207,1345Z" fill="#2a6199" stroke="#2a6199" stroke-width="1.51"/><path d="M1203,-84L1041,-27L1214,139Z" fill="#97c7bb" stroke="#97c7bb" stroke-width="1.51"/><path d="M1041,-27L1034,96L1214,139Z" fill="#92c8bc" stroke="#92c8bc" stroke-width="1.51"/><path d="M1214,139L1019,244L1234,270Z" fill="#78bdbd" stroke="#78bdbd" stroke-width="1.51"/><path d="M1019,244L1087,340L1234,270Z" fill="#6bbbbe" stroke="#6bbbbe" stroke-width="1.51"/><path d="M1087,340L1133,392L1234,270Z" fill="#5eb5bf" stroke="#5eb5bf" stroke-width="1.51"/><path d="M561,-230L701,-200L933,-242Z" fill="#bbe2c5" stroke="#bbe2c5" stroke-width="1.51"/><path d="M1054,1112L1033,1322L1205,1150Z" fill="#3469a6" stroke="#3469a6" stroke-width="1.51"/><path d="M1034,96L1019,244L1214,139Z" fill="#86c5bc" stroke="#86c5bc" stroke-width="1.51"/><path d="M1036,705L1160,810L1216,688Z" fill="#2899c1" stroke="#2899c1" stroke-width="1.51"/><path d="M1139,569L1036,705L1216,688Z" fill="#31a1c2" stroke="#31a1c2" stroke-width="1.51"/><path d="M1045,-245L1041,-27L1203,-84Z" fill="#a3cebf" stroke="#a3cebf" stroke-width="1.51"/><path d="M1133,392L1013,513L1139,569Z" fill="#46b0c2" stroke="#46b0c2" stroke-width="1.51"/><path d="M979,956L1054,1112L1151,964Z" fill="#347db3" stroke="#347db3" stroke-width="1.51"/><path d="M1024,792L979,956L1151,964Z" fill="#328ab9" stroke="#328ab9" stroke-width="1.51"/><path d="M1024,792L1151,964L1160,810Z" fill="#2c8cbb" stroke="#2c8cbb" stroke-width="1.51"/><path d="M1036,705L1024,792L1160,810Z" fill="#2d99c0" stroke="#2d99c0" stroke-width="1.51"/><path d="M1013,513L1036,705L1139,569Z" fill="#39aac3" stroke="#39aac3" stroke-width="1.51"/><path d="M1087,340L1013,513L1133,392Z" fill="#54b5c1" stroke="#54b5c1" stroke-width="1.51"/><path d="M1013,513L909,595L1036,705Z" fill="#3caec4" stroke="#3caec4" stroke-width="1.51"/><path d="M933,-242L885,-50L1041,-27Z" fill="#a7d8be" stroke="#a7d8be" stroke-width="1.51"/><path d="M933,-242L1041,-27L1045,-245Z" fill="#a7d5c4" stroke="#a7d5c4" stroke-width="1.51"/><path d="M888,1139L1033,1322L1054,1112Z" fill="#3a6fa7" stroke="#3a6fa7" stroke-width="1.51"/><path d="M916,396L1013,513L1087,340Z" fill="#56bac1" stroke="#56bac1" stroke-width="1.51"/><path d="M1019,244L926,289L1087,340Z" fill="#6dc1bf" stroke="#6dc1bf" stroke-width="1.51"/><path d="M926,289L916,396L1087,340Z" fill="#63c0c0" stroke="#63c0c0" stroke-width="1.51"/><path d="M893,823L979,956L1024,792Z" fill="#3694bc" stroke="#3694bc" stroke-width="1.51"/><path d="M888,1139L886,1320L1033,1322Z" fill="#3a6d9c" stroke="#3a6d9c" stroke-width="1.51"/><path d="M897,81L1019,244L1034,96Z" fill="#8dcdbd" stroke="#8dcdbd" stroke-width="1.51"/><path d="M897,81L1034,96L1041,-27Z" fill="#97d0bc" stroke="#97d0bc" stroke-width="1.51"/><path d="M979,956L888,1139L1054,1112Z" fill="#3c7cb1" stroke="#3c7cb1" stroke-width="1.51"/><path d="M885,-50L897,81L1041,-27Z" fill="#9ed4bb" stroke="#9ed4bb" stroke-width="1.51"/><path d="M909,595L870,662L1036,705Z" fill="#3dacc3" stroke="#3dacc3" stroke-width="1.51"/><path d="M893,823L1024,792L1036,705Z" fill="#329ec1" stroke="#329ec1" stroke-width="1.51"/><path d="M897,81L926,289L1019,244Z" fill="#82cabe" stroke="#82cabe" stroke-width="1.51"/><path d="M870,662L893,823L1036,705Z" fill="#39a6c2" stroke="#39a6c2" stroke-width="1.51"/><path d="M861,941L888,1139L979,956Z" fill="#4185b3" stroke="#4185b3" stroke-width="1.51"/><path d="M916,396L909,595L1013,513Z" fill="#4bb8c3" stroke="#4bb8c3" stroke-width="1.51"/><path d="M897,81L776,262L926,289Z" fill="#87cdbc" stroke="#87cdbc" stroke-width="1.51"/><path d="M893,823L861,941L979,956Z" fill="#3e91b8" stroke="#3e91b8" stroke-width="1.51"/><path d="M394,1287L233,1318L585,1312Z" fill="#717d90" stroke="#717d90" stroke-width="1.51"/><path d="M861,941L788,1099L888,1139Z" fill="#4a82b0" stroke="#4a82b0" stroke-width="1.51"/><path d="M723,519L909,595L916,396Z" fill="#56bcc2" stroke="#56bcc2" stroke-width="1.51"/><path d="M776,262L916,396L926,289Z" fill="#71c6be" stroke="#71c6be" stroke-width="1.51"/><path d="M701,-200L885,-50L933,-242Z" fill="#b1ddc2" stroke="#b1ddc2" stroke-width="1.51"/><path d="M885,-50L791,46L897,81Z" fill="#a2d7bb" stroke="#a2d7bb" stroke-width="1.51"/><path d="M701,-200L771,-25L885,-50Z" fill="#b2ddba" stroke="#b2ddba" stroke-width="1.51"/><path d="M788,1099L708,1332L886,1320Z" fill="#4a739c" stroke="#4a739c" stroke-width="1.51"/><path d="M788,1099L886,1320L888,1139Z" fill="#4875a7" stroke="#4875a7" stroke-width="1.51"/><path d="M870,662L767,858L893,823Z" fill="#46a3bf" stroke="#46a3bf" stroke-width="1.51"/><path d="M791,46L776,262L897,81Z" fill="#99d5ba" stroke="#99d5ba" stroke-width="1.51"/><path d="M776,262L692,436L916,396Z" fill="#70c6be" stroke="#70c6be" stroke-width="1.51"/><path d="M692,436L723,519L916,396Z" fill="#66c2c0" stroke="#66c2c0" stroke-width="1.51"/><path d="M767,858L861,941L893,823Z" fill="#4797b9" stroke="#4797b9" stroke-width="1.51"/><path d="M723,519L870,662L909,595Z" fill="#4fb6c2" stroke="#4fb6c2" stroke-width="1.51"/><path d="M764,940L788,1099L861,941Z" fill="#4d8ab2" stroke="#4d8ab2" stroke-width="1.51"/><path d="M686,671L767,858L870,662Z" fill="#4eacc0" stroke="#4eacc0" stroke-width="1.51"/><path d="M771,-25L791,46L885,-50Z" fill="#a8daba" stroke="#a8daba" stroke-width="1.51"/><path d="M767,858L764,940L861,941Z" fill="#4d94b7" stroke="#4d94b7" stroke-width="1.51"/><path d="M723,519L686,671L870,662Z" fill="#57b6c1" stroke="#57b6c1" stroke-width="1.51"/><path d="M19,1294L-201,1329L233,1318Z" fill="#898690" stroke="#898690" stroke-width="1.51"/><path d="M686,671L617,802L767,858Z" fill="#58a9bd" stroke="#58a9bd" stroke-width="1.51"/><path d="M701,-200L604,-32L771,-25Z" fill="#b8e1b8" stroke="#b8e1b8" stroke-width="1.51"/><path d="M553,1191L708,1332L788,1099Z" fill="#5779a1" stroke="#5779a1" stroke-width="1.51"/><path d="M764,940L609,970L788,1099Z" fill="#568cb1" stroke="#568cb1" stroke-width="1.51"/><path d="M571,62L611,208L791,46Z" fill="#a8dcb8" stroke="#a8dcb8" stroke-width="1.51"/><path d="M771,-25L604,-32L791,46Z" fill="#aeddb8" stroke="#aeddb8" stroke-width="1.51"/><path d="M604,-32L571,62L791,46Z" fill="#b0deb7" stroke="#b0deb7" stroke-width="1.51"/><path d="M611,208L776,262L791,46Z" fill="#99d5ba" stroke="#99d5ba" stroke-width="1.51"/><path d="M611,208L692,436L776,262Z" fill="#83cdbb" stroke="#83cdbb" stroke-width="1.51"/><path d="M609,970L553,1191L788,1099Z" fill="#5e86ac" stroke="#5e86ac" stroke-width="1.51"/><path d="M553,1191L585,1312L708,1332Z" fill="#5a7796" stroke="#5a7796" stroke-width="1.51"/><path d="M609,970L764,940L767,858Z" fill="#5595b5" stroke="#5595b5" stroke-width="1.51"/><path d="M617,802L609,970L767,858Z" fill="#5a9db7" stroke="#5a9db7" stroke-width="1.51"/><path d="M611,208L532,444L692,436Z" fill="#82cdbb" stroke="#82cdbb" stroke-width="1.51"/><path d="M692,436L607,519L723,519Z" fill="#6ac3bf" stroke="#6ac3bf" stroke-width="1.51"/><path d="M607,519L686,671L723,519Z" fill="#62bebf" stroke="#62bebf" stroke-width="1.51"/><path d="M607,519L540,664L686,671Z" fill="#69bdbf" stroke="#69bdbf" stroke-width="1.51"/><path d="M561,-230L604,-32L701,-200Z" fill="#c1e6bd" stroke="#c1e6bd" stroke-width="1.51"/><path d="M452,285L532,444L611,208Z" fill="#94d4b9" stroke="#94d4b9" stroke-width="1.51"/><path d="M540,664L617,802L686,671Z" fill="#64b3be" stroke="#64b3be" stroke-width="1.51"/><path d="M532,444L607,519L692,436Z" fill="#76c8be" stroke="#76c8be" stroke-width="1.51"/><path d="M445,1031L426,1128L553,1191Z" fill="#768aaa" stroke="#768aaa" stroke-width="1.51"/><path d="M561,-230L470,-106L604,-32Z" fill="#c8e9b9" stroke="#c8e9b9" stroke-width="1.51"/><path d="M445,1031L553,1191L609,970Z" fill="#6e8dac" stroke="#6e8dac" stroke-width="1.51"/><path d="M571,62L420,90L611,208Z" fill="#b4e1b6" stroke="#b4e1b6" stroke-width="1.51"/><path d="M440,830L609,970L617,802Z" fill="#6ba3b7" stroke="#6ba3b7" stroke-width="1.51"/><path d="M540,664L440,830L617,802Z" fill="#6fb1bc" stroke="#6fb1bc" stroke-width="1.51"/><path d="M385,552L540,664L607,519Z" fill="#7ac5be" stroke="#7ac5be" stroke-width="1.51"/><path d="M532,444L385,552L607,519Z" fill="#80cabe" stroke="#80cabe" stroke-width="1.51"/><path d="M440,830L445,1031L609,970Z" fill="#729bb1" stroke="#729bb1" stroke-width="1.51"/><path d="M420,90L452,285L611,208Z" fill="#addeb7" stroke="#addeb7" stroke-width="1.51"/><path d="M420,711L440,830L540,664Z" fill="#79b8bc" stroke="#79b8bc" stroke-width="1.51"/><path d="M470,-106L571,62L604,-32Z" fill="#c1e5b6" stroke="#c1e5b6" stroke-width="1.51"/><path d="M470,-106L420,90L571,62Z" fill="#c4e7b5" stroke="#c4e7b5" stroke-width="1.51"/><path d="M553,1191L394,1287L585,1312Z" fill="#687c98" stroke="#687c98" stroke-width="1.51"/><path d="M-218,-211L-26,-219L114,-258Z" fill="#f7fcc7" stroke="#f7fcc7" stroke-width="1.51"/><path d="M452,285L399,391L532,444Z" fill="#94d4ba" stroke="#94d4ba" stroke-width="1.51"/><path d="M386,-216L470,-106L561,-230Z" fill="#d3edbe" stroke="#d3edbe" stroke-width="1.51"/><path d="M426,1128L394,1287L553,1191Z" fill="#7483a0" stroke="#7483a0" stroke-width="1.51"/><path d="M385,552L420,711L540,664Z" fill="#7fc1bd" stroke="#7fc1bd" stroke-width="1.51"/><path d="M440,830L340,887L445,1031Z" fill="#7ea3b2" stroke="#7ea3b2" stroke-width="1.51"/><path d="M399,391L385,552L532,444Z" fill="#8ed0bc" stroke="#8ed0bc" stroke-width="1.51"/><path d="M114,-258L284,-184L386,-216Z" fill="#e7f6bf" stroke="#e7f6bf" stroke-width="1.51"/><path d="M420,90L281,255L452,285Z" fill="#b7e2b6" stroke="#b7e2b6" stroke-width="1.51"/><path d="M386,-216L298,-114L470,-106Z" fill="#dbf1ba" stroke="#dbf1ba" stroke-width="1.51"/><path d="M324,62L420,90L470,-106Z" fill="#cdebb4" stroke="#cdebb4" stroke-width="1.51"/><path d="M298,-114L324,62L470,-106Z" fill="#d7f0b3" stroke="#d7f0b3" stroke-width="1.51"/><path d="M324,62L281,255L420,90Z" fill="#c7e9b4" stroke="#c7e9b4" stroke-width="1.51"/><path d="M340,887L271,935L445,1031Z" fill="#84a0b0" stroke="#84a0b0" stroke-width="1.51"/><path d="M281,255L399,391L452,285Z" fill="#a7dbb7" stroke="#a7dbb7" stroke-width="1.51"/><path d="M385,552L289,709L420,711Z" fill="#8ac4bc" stroke="#8ac4bc" stroke-width="1.51"/><path d="M420,711L289,709L440,830Z" fill="#84babc" stroke="#84babc" stroke-width="1.51"/><path d="M289,709L340,887L440,830Z" fill="#86b3b8" stroke="#86b3b8" stroke-width="1.51"/><path d="M241,1097L426,1128L445,1031Z" fill="#8391aa" stroke="#8391aa" stroke-width="1.51"/><path d="M271,935L241,1097L445,1031Z" fill="#8699ad" stroke="#8699ad" stroke-width="1.51"/><path d="M241,1097L394,1287L426,1128Z" fill="#8289a5" stroke="#8289a5" stroke-width="1.51"/><path d="M259,440L385,552L399,391Z" fill="#99d4bb" stroke="#99d4bb" stroke-width="1.51"/><path d="M241,1097L233,1318L394,1287Z" fill="#81869a" stroke="#81869a" stroke-width="1.51"/><path d="M254,531L289,709L385,552Z" fill="#91cbbc" stroke="#91cbbc" stroke-width="1.51"/><path d="M259,440L254,531L385,552Z" fill="#98d3bc" stroke="#98d3bc" stroke-width="1.51"/><path d="M284,-184L298,-114L386,-216Z" fill="#e1f3bb" stroke="#e1f3bb" stroke-width="1.51"/><path d="M281,255L259,440L399,391Z" fill="#a5dab8" stroke="#a5dab8" stroke-width="1.51"/><path d="M166,1167L233,1318L241,1097Z" fill="#8a8aa1" stroke="#8a8aa1" stroke-width="1.51"/><path d="M91,1282L19,1294L233,1318Z" fill="#868591" stroke="#868591" stroke-width="1.51"/><path d="M102,853L271,935L289,709Z" fill="#90b3b6" stroke="#90b3b6" stroke-width="1.51"/><path d="M163,137L281,255L324,62Z" fill="#caeab4" stroke="#caeab4" stroke-width="1.51"/><path d="M298,-114L177,-64L324,62Z" fill="#ddf2b3" stroke="#ddf2b3" stroke-width="1.51"/><path d="M289,709L271,935L340,887Z" fill="#8ab0b6" stroke="#8ab0b6" stroke-width="1.51"/><path d="M169,978L241,1097L271,935Z" fill="#8d9eae" stroke="#8d9eae" stroke-width="1.51"/><path d="M180,254L259,440L281,255Z" fill="#b0dfb7" stroke="#b0dfb7" stroke-width="1.51"/><path d="M254,531L145,673L289,709Z" fill="#95c9bc" stroke="#95c9bc" stroke-width="1.51"/><path d="M177,-64L163,137L324,62Z" fill="#d8f0b3" stroke="#d8f0b3" stroke-width="1.51"/><path d="M166,543L145,673L254,531Z" fill="#9bcfbc" stroke="#9bcfbc" stroke-width="1.51"/><path d="M180,254L100,397L259,440Z" fill="#afdeb7" stroke="#afdeb7" stroke-width="1.51"/><path d="M163,137L180,254L281,255Z" fill="#c3e7b5" stroke="#c3e7b5" stroke-width="1.51"/><path d="M145,673L102,853L289,709Z" fill="#94c0bb" stroke="#94c0bb" stroke-width="1.51"/><path d="M284,-184L177,-64L298,-114Z" fill="#e3f4b6" stroke="#e3f4b6" stroke-width="1.51"/><path d="M102,853L169,978L271,935Z" fill="#91a8b1" stroke="#91a8b1" stroke-width="1.51"/><path d="M114,-258L177,-64L284,-184Z" fill="#e9f6ba" stroke="#e9f6ba" stroke-width="1.51"/><path d="M166,543L254,531L259,440Z" fill="#9dd5bc" stroke="#9dd5bc" stroke-width="1.51"/><path d="M166,1167L91,1282L233,1318Z" fill="#878797" stroke="#878797" stroke-width="1.51"/><path d="M100,397L166,543L259,440Z" fill="#a6d8ba" stroke="#a6d8ba" stroke-width="1.51"/><path d="M169,978L166,1167L241,1097Z" fill="#8f95aa" stroke="#8f95aa" stroke-width="1.51"/><path d="M-8,702L102,853L145,673Z" fill="#9cc3ba" stroke="#9cc3ba" stroke-width="1.51"/><path d="M17,583L145,673L166,543Z" fill="#a0d0bc" stroke="#a0d0bc" stroke-width="1.51"/><path d="M32,1104L166,1167L169,978Z" fill="#9397aa" stroke="#9397aa" stroke-width="1.51"/><path d="M114,-258L-26,-219L177,-64Z" fill="#f0f9bb" stroke="#f0f9bb" stroke-width="1.51"/><path d="M-26,-219L-38,-31L177,-64Z" fill="#eff9b5" stroke="#eff9b5" stroke-width="1.51"/><path d="M-13,70L163,137L177,-64Z" fill="#dff2b3" stroke="#dff2b3" stroke-width="1.51"/><path d="M-38,-31L-13,70L177,-64Z" fill="#e7f6b3" stroke="#e7f6b3" stroke-width="1.51"/><path d="M163,137L-51,216L180,254Z" fill="#cceab4" stroke="#cceab4" stroke-width="1.51"/><path d="M-51,216L100,397L180,254Z" fill="#c0e5b6" stroke="#c0e5b6" stroke-width="1.51"/><path d="M100,397L17,583L166,543Z" fill="#a7d8bb" stroke="#a7d8bb" stroke-width="1.51"/><path d="M102,853L34,855L169,978Z" fill="#97aeb3" stroke="#97aeb3" stroke-width="1.51"/><path d="M34,855L-32,953L169,978Z" fill="#99aab1" stroke="#99aab1" stroke-width="1.51"/><path d="M-32,953L32,1104L169,978Z" fill="#98a0ad" stroke="#98a0ad" stroke-width="1.51"/><path d="M-13,70L-51,216L163,137Z" fill="#d9f0b5" stroke="#d9f0b5" stroke-width="1.51"/><path d="M32,1104L91,1282L166,1167Z" fill="#928da2" stroke="#928da2" stroke-width="1.51"/><path d="M-51,216L-30,384L100,397Z" fill="#bbe3ba" stroke="#bbe3ba" stroke-width="1.51"/><path d="M-8,702L34,855L102,853Z" fill="#9cbbb8" stroke="#9cbbb8" stroke-width="1.51"/><path d="M17,583L-8,702L145,673Z" fill="#a1ccbb" stroke="#a1ccbb" stroke-width="1.51"/><path d="M32,1104L19,1294L91,1282Z" fill="#918b9d" stroke="#918b9d" stroke-width="1.51"/><path d="M-30,384L17,583L100,397Z" fill="#afdcbb" stroke="#afdcbb" stroke-width="1.51"/><path d="M-30,384L-113,415L17,583Z" fill="#b0dcc1" stroke="#b0dcc1" stroke-width="1.51"/><path d="M-113,415L-159,536L17,583Z" fill="#acdac4" stroke="#acdac4" stroke-width="1.51"/><path d="M-32,953L-119,1030L32,1104Z" fill="#9a9fb2" stroke="#9a9fb2" stroke-width="1.51"/><path d="M-155,1190L19,1294L32,1104Z" fill="#958ea6" stroke="#958ea6" stroke-width="1.51"/><path d="M-119,1030L-155,1190L32,1104Z" fill="#9b97b1" stroke="#9b97b1" stroke-width="1.51"/><path d="M-185,795L-32,953L34,855Z" fill="#9db4bb" stroke="#9db4bb" stroke-width="1.51"/><path d="M-139,727L-185,795L34,855Z" fill="#a0bec2" stroke="#a0bec2" stroke-width="1.51"/><path d="M-8,702L-139,727L34,855Z" fill="#9fc2c0" stroke="#9fc2c0" stroke-width="1.51"/><path d="M-159,536L-139,727L-8,702Z" fill="#a5cdc6" stroke="#a5cdc6" stroke-width="1.51"/><path d="M-159,536L-8,702L17,583Z" fill="#a6d2c3" stroke="#a6d2c3" stroke-width="1.51"/><path d="M-155,1190L-201,1329L19,1294Z" fill="#908a9f" stroke="#908a9f" stroke-width="1.51"/><path d="M-218,-211L-180,-7L-38,-31Z" fill="#f3fbbf" stroke="#f3fbbf" stroke-width="1.51"/><path d="M-51,216L-113,415L-30,384Z" fill="#bde3bf" stroke="#bde3bf" stroke-width="1.51"/><path d="M-218,-211L-38,-31L-26,-219Z" fill="#f5fbc3" stroke="#f5fbc3" stroke-width="1.51"/><path d="M-204,99L-51,216L-13,70Z" fill="#dff2bc" stroke="#dff2bc" stroke-width="1.51"/><path d="M-38,-31L-180,-7L-13,70Z" fill="#e9f6ba" stroke="#e9f6ba" stroke-width="1.51"/><path d="M-180,-7L-204,99L-13,70Z" fill="#e7f5bf" stroke="#e7f5bf" stroke-width="1.51"/><path d="M-204,99L-202,199L-51,216Z" fill="#daf0c1" stroke="#daf0c1" stroke-width="1.51"/><path d="M-202,199L-113,415L-51,216Z" fill="#c8e9c1" stroke="#c8e9c1" stroke-width="1.51"/><path d="M-185,795L-119,1030L-32,953Z" fill="#9cacbb" stroke="#9cacbb" stroke-width="1.51"/><path d="M-202,199L-159,536L-113,415Z" fill="#bbe2c6" stroke="#bbe2c6" stroke-width="1.51"/><path d="M-185,795L-155,1190L-119,1030Z" fill="#9da3ba" stroke="#9da3ba" stroke-width="1.51"/><path d="M-159,536L-185,795L-139,727Z" fill="#a4cbc8" stroke="#a4cbc8" stroke-width="1.51"/><path d="M-185,795L-201,1329L-155,1190Z" fill="#9d98b7" stroke="#9d98b7" stroke-width="1.51"/><path d="M-202,199L-185,795L-159,536Z" fill="#afdbca" stroke="#afdbca" stroke-width="1.51"/><path d="M-218,-211L-204,99L-180,-7Z" fill="#f2fac3" stroke="#f2fac3" stroke-width="1.51"/><path d="M-202,199L-201,1329L-185,795Z" fill="#a2c2c9" stroke="#a2c2c9" stroke-width="1.51"/><path d="M-202,199L-218,-211L-201,1329Z" fill="#b7dfcb" stroke="#b7dfcb" stroke-width="1.51"/><path d="M-204,99L-218,-211L-202,199Z" fill="#ebf7c4" stroke="#ebf7c4" stroke-width="1.51"/></svg>
