<svg xmlns="http://www.w3.org/2000/svg" width="1920" height="1080"><path d="M233,1318L-201,1329L708,1332Z" fill="#a86b9c" stroke="#a86b9c" stroke-width="1.51"/><path d="M114,-258L561,-230L933,-242Z" fill="#fed1d4" stroke="#fed1d4" stroke-width="1.51"/><path d="M933,-242L1045,-245L1204,-257Z" fill="#fbaac6" stroke="#fbaac6" stroke-width="1.51"/><path d="M114,-258L933,-242L1204,-257Z" fill="#ffc2cf" stroke="#ffc2cf" stroke-width="1.51"/><path d="M1033,1322L886,1320L1207,1345Z" fill="#a12e85" stroke="#a12e85" stroke-width="1.51"/><path d="M886,1320L708,1332L1207,1345Z" fill="#a33888" stroke="#a33888" stroke-width="1.51"/><path d="M1431,-248L1583,-218L1835,-226Z" fill="#d68ab4" stroke="#d68ab4" stroke-width="1.51"/><path d="M1815,1290L1469,1289L1923,1331Z" fill="#740074" stroke="#740074" stroke-width="1.51"/><path d="M1469,1289L1207,1345L1923,1331Z" fill="#840177" stroke="#840177" stroke-width="1.51"/><path d="M1204,-257L1431,-248L2029,-238Z" fill="#dc8db5" stroke="#dc8db5" stroke-width="1.51"/><path d="M1431,-248L1835,-226L2029,-238Z" fill="#c887b3" stroke="#c887b3" stroke-width="1.51"/><path d="M1835,-226L1912,-217L2029,-238Z" fill="#b981b0" stroke="#b981b0" stroke-width="1.51"/><path d="M2048,114L2033,215L2079,399Z" fill="#ab5d95" stroke="#ab5d95" stroke-width="1.51"/><path d="M2083,1010L1939,1086L2085,1195Z" fill="#740074" stroke="#740074" stroke-width="1.51"/><path d="M2048,114L2079,399L2131,484Z" fill="#a75391" stroke="#a75391" stroke-width="1.51"/><path d="M2078,-95L2048,114L2131,484Z" fill="#a96396" stroke="#a96396" stroke-width="1.51"/><path d="M1893,688L1981,813L2136,710Z" fill="#a01c84" stroke="#a01c84" stroke-width="1.51"/><path d="M1907,591L1893,688L2136,710Z" fill="#a72887" stroke="#a72887" stroke-width="1.51"/><path d="M1981,813L2072,873L2136,710Z" fill="#951380" stroke="#951380" stroke-width="1.51"/><path d="M2131,484L1907,591L2136,710Z" fill="#a43086" stroke="#a43086" stroke-width="1.51"/><path d="M2072,873L2083,1010L2136,710Z" fill="#8b0b7b" stroke="#8b0b7b" stroke-width="1.51"/><path d="M2083,1010L2085,1195L2136,710Z" fill="#7f0075" stroke="#7f0075" stroke-width="1.51"/><path d="M2079,399L1943,391L2131,484Z" fill="#a9488e" stroke="#a9488e" stroke-width="1.51"/><path d="M1943,391L1907,591L2131,484Z" fill="#ae408c" stroke="#ae408c" stroke-width="1.51"/><path d="M1890,-6L1893,39L2048,114Z" fill="#b6709f" stroke="#b6709f" stroke-width="1.51"/><path d="M1981,813L1899,1017L2072,873Z" fill="#90067b" stroke="#90067b" stroke-width="1.51"/><path d="M2029,-238L1912,-217L2078,-95Z" fill="#b27cac" stroke="#b27cac" stroke-width="1.51"/><path d="M1890,-6L2048,114L2078,-95Z" fill="#b171a1" stroke="#b171a1" stroke-width="1.51"/><path d="M2033,215L1943,391L2079,399Z" fill="#ad5593" stroke="#ad5593" stroke-width="1.51"/><path d="M2072,873L1899,1017L2083,1010Z" fill="#860077" stroke="#860077" stroke-width="1.51"/><path d="M1939,1086L2043,1294L2085,1195Z" fill="#690072" stroke="#690072" stroke-width="1.51"/><path d="M1899,1017L1939,1086L2083,1010Z" fill="#810077" stroke="#810077" stroke-width="1.51"/><path d="M1909,233L1943,391L2033,215Z" fill="#b25c96" stroke="#b25c96" stroke-width="1.51"/><path d="M1912,-217L1890,-6L2078,-95Z" fill="#b579a9" stroke="#b579a9" stroke-width="1.51"/><path d="M1939,1086L1923,1331L2043,1294Z" fill="#690072" stroke="#690072" stroke-width="1.51"/><path d="M1909,233L2033,215L2048,114Z" fill="#b06497" stroke="#b06497" stroke-width="1.51"/><path d="M1893,39L1909,233L2048,114Z" fill="#b56b9a" stroke="#b56b9a" stroke-width="1.51"/><path d="M1815,1290L1923,1331L1939,1086Z" fill="#6f0074" stroke="#6f0074" stroke-width="1.51"/><path d="M1838,832L1899,1017L1981,813Z" fill="#980a7e" stroke="#980a7e" stroke-width="1.51"/><path d="M1893,39L1832,79L1909,233Z" fill="#ba6d9c" stroke="#ba6d9c" stroke-width="1.51"/><path d="M1772,1188L1815,1290L1939,1086Z" fill="#780176" stroke="#780176" stroke-width="1.51"/><path d="M1833,389L1907,591L1943,391Z" fill="#b64790" stroke="#b64790" stroke-width="1.51"/><path d="M1893,688L1838,832L1981,813Z" fill="#a41884" stroke="#a41884" stroke-width="1.51"/><path d="M1609,1242L1469,1289L1815,1290Z" fill="#810076" stroke="#810076" stroke-width="1.51"/><path d="M1835,-226L1802,-15L1890,-6Z" fill="#bf7baa" stroke="#bf7baa" stroke-width="1.51"/><path d="M1833,389L1764,563L1907,591Z" fill="#ba3f8e" stroke="#ba3f8e" stroke-width="1.51"/><path d="M1835,-226L1890,-6L1912,-217Z" fill="#bc7ead" stroke="#bc7ead" stroke-width="1.51"/><path d="M1795,1035L1772,1188L1939,1086Z" fill="#830179" stroke="#830179" stroke-width="1.51"/><path d="M1909,233L1833,389L1943,391Z" fill="#b75895" stroke="#b75895" stroke-width="1.51"/><path d="M1899,1017L1795,1035L1939,1086Z" fill="#870079" stroke="#870079" stroke-width="1.51"/><path d="M1791,702L1838,832L1893,688Z" fill="#ad1e87" stroke="#ad1e87" stroke-width="1.51"/><path d="M1838,832L1795,1035L1899,1017Z" fill="#95017b" stroke="#95017b" stroke-width="1.51"/><path d="M1770,207L1833,389L1909,233Z" fill="#bd6098" stroke="#bd6098" stroke-width="1.51"/><path d="M1832,79L1770,207L1909,233Z" fill="#be6a9b" stroke="#be6a9b" stroke-width="1.51"/><path d="M1791,702L1893,688L1907,591Z" fill="#b02a89" stroke="#b02a89" stroke-width="1.51"/><path d="M1764,563L1791,702L1907,591Z" fill="#b6318b" stroke="#b6318b" stroke-width="1.51"/><path d="M1890,-6L1802,-15L1893,39Z" fill="#bd75a4" stroke="#bd75a4" stroke-width="1.51"/><path d="M1802,-15L1832,79L1893,39Z" fill="#be74a2" stroke="#be74a2" stroke-width="1.51"/><path d="M1770,207L1633,375L1833,389Z" fill="#c45d98" stroke="#c45d98" stroke-width="1.51"/><path d="M1633,375L1764,563L1833,389Z" fill="#c34c92" stroke="#c34c92" stroke-width="1.51"/><path d="M1683,-49L1802,-15L1835,-226Z" fill="#c57eab" stroke="#c57eab" stroke-width="1.51"/><path d="M1583,-218L1683,-49L1835,-226Z" fill="#cd84b0" stroke="#cd84b0" stroke-width="1.51"/><path d="M1671,889L1795,1035L1838,832Z" fill="#a0067e" stroke="#a0067e" stroke-width="1.51"/><path d="M1791,702L1671,889L1838,832Z" fill="#ac1784" stroke="#ac1784" stroke-width="1.51"/><path d="M1634,128L1770,207L1832,79Z" fill="#c66f9d" stroke="#c66f9d" stroke-width="1.51"/><path d="M1802,-15L1634,128L1832,79Z" fill="#c674a1" stroke="#c674a1" stroke-width="1.51"/><path d="M1633,375L1616,532L1764,563Z" fill="#c94691" stroke="#c94691" stroke-width="1.51"/><path d="M1674,1036L1772,1188L1795,1035Z" fill="#8d0179" stroke="#8d0179" stroke-width="1.51"/><path d="M1671,889L1674,1036L1795,1035Z" fill="#9d007c" stroke="#9d007c" stroke-width="1.51"/><path d="M1683,-49L1634,128L1802,-15Z" fill="#cb79a5" stroke="#cb79a5" stroke-width="1.51"/><path d="M1772,1188L1667,1184L1815,1290Z" fill="#7d0077" stroke="#7d0077" stroke-width="1.51"/><path d="M1667,1184L1609,1242L1815,1290Z" fill="#7f0077" stroke="#7f0077" stroke-width="1.51"/><path d="M1674,1036L1667,1184L1772,1188Z" fill="#8b007a" stroke="#8b007a" stroke-width="1.51"/><path d="M1764,563L1614,676L1791,702Z" fill="#be2e8b" stroke="#be2e8b" stroke-width="1.51"/><path d="M1614,676L1671,889L1791,702Z" fill="#b91d88" stroke="#b91d88" stroke-width="1.51"/><path d="M1616,532L1614,676L1764,563Z" fill="#c6388e" stroke="#c6388e" stroke-width="1.51"/><path d="M1588,185L1633,375L1770,207Z" fill="#cc669b" stroke="#cc669b" stroke-width="1.51"/><path d="M585,1312L233,1318L708,1332Z" fill="#a75d94" stroke="#a75d94" stroke-width="1.51"/><path d="M1634,128L1588,185L1770,207Z" fill="#cd6e9d" stroke="#cd6e9d" stroke-width="1.51"/><path d="M1588,185L1522,366L1633,375Z" fill="#d3639a" stroke="#d3639a" stroke-width="1.51"/><path d="M1614,676L1516,801L1671,889Z" fill="#bd1b87" stroke="#bd1b87" stroke-width="1.51"/><path d="M1505,1105L1667,1184L1674,1036Z" fill="#96017b" stroke="#96017b" stroke-width="1.51"/><path d="M1671,889L1526,990L1674,1036Z" fill="#a6017d" stroke="#a6017d" stroke-width="1.51"/><path d="M1492,-30L1634,128L1683,-49Z" fill="#d57ca6" stroke="#d57ca6" stroke-width="1.51"/><path d="M1583,-218L1492,-30L1683,-49Z" fill="#d784ad" stroke="#d784ad" stroke-width="1.51"/><path d="M1526,990L1505,1105L1674,1036Z" fill="#a2007d" stroke="#a2007d" stroke-width="1.51"/><path d="M1505,1105L1609,1242L1667,1184Z" fill="#8f017a" stroke="#8f017a" stroke-width="1.51"/><path d="M1516,801L1526,990L1671,889Z" fill="#b30c81" stroke="#b30c81" stroke-width="1.51"/><path d="M1492,-30L1456,58L1634,128Z" fill="#db7ca6" stroke="#db7ca6" stroke-width="1.51"/><path d="M1441,287L1522,366L1588,185Z" fill="#d9689d" stroke="#d9689d" stroke-width="1.51"/><path d="M1437,569L1433,637L1614,676Z" fill="#d23890" stroke="#d23890" stroke-width="1.51"/><path d="M1437,569L1614,676L1616,532Z" fill="#cf398e" stroke="#cf398e" stroke-width="1.51"/><path d="M1522,366L1616,532L1633,375Z" fill="#d15294" stroke="#d15294" stroke-width="1.51"/><path d="M1456,58L1588,185L1634,128Z" fill="#d7769f" stroke="#d7769f" stroke-width="1.51"/><path d="M1505,1105L1469,1289L1609,1242Z" fill="#91037b" stroke="#91037b" stroke-width="1.51"/><path d="M1433,637L1516,801L1614,676Z" fill="#cb2a8d" stroke="#cb2a8d" stroke-width="1.51"/><path d="M1522,366L1437,569L1616,532Z" fill="#d64b94" stroke="#d64b94" stroke-width="1.51"/><path d="M1431,-248L1492,-30L1583,-218Z" fill="#df8cb4" stroke="#df8cb4" stroke-width="1.51"/><path d="M1456,58L1380,233L1588,185Z" fill="#de76a2" stroke="#de76a2" stroke-width="1.51"/><path d="M1380,233L1441,287L1588,185Z" fill="#dd6fa0" stroke="#dd6fa0" stroke-width="1.51"/><path d="M1368,370L1341,535L1437,569Z" fill="#e1529a" stroke="#e1529a" stroke-width="1.51"/><path d="M1350,135L1380,233L1456,58Z" fill="#e47ca6" stroke="#e47ca6" stroke-width="1.51"/><path d="M1431,-248L1290,-116L1492,-30Z" fill="#e68fb6" stroke="#e68fb6" stroke-width="1.51"/><path d="M1389,1234L1469,1289L1505,1105Z" fill="#960b7e" stroke="#960b7e" stroke-width="1.51"/><path d="M1368,370L1437,569L1522,366Z" fill="#dd579a" stroke="#dd579a" stroke-width="1.51"/><path d="M1350,1021L1505,1105L1526,990Z" fill="#aa0d81" stroke="#aa0d81" stroke-width="1.51"/><path d="M1351,892L1350,1021L1526,990Z" fill="#b71384" stroke="#b71384" stroke-width="1.51"/><path d="M1516,801L1351,892L1526,990Z" fill="#bc1685" stroke="#bc1685" stroke-width="1.51"/><path d="M1350,1021L1359,1095L1505,1105Z" fill="#ab1283" stroke="#ab1283" stroke-width="1.51"/><path d="M1433,637L1302,696L1516,801Z" fill="#d23091" stroke="#d23091" stroke-width="1.51"/><path d="M1441,287L1368,370L1522,366Z" fill="#de659e" stroke="#de659e" stroke-width="1.51"/><path d="M1359,1095L1389,1234L1505,1105Z" fill="#a11081" stroke="#a11081" stroke-width="1.51"/><path d="M1302,696L1351,892L1516,801Z" fill="#cc278e" stroke="#cc278e" stroke-width="1.51"/><path d="M1300,-199L1290,-116L1431,-248Z" fill="#ec95bc" stroke="#ec95bc" stroke-width="1.51"/><path d="M1389,1234L1207,1345L1469,1289Z" fill="#94127f" stroke="#94127f" stroke-width="1.51"/><path d="M1290,-116L1456,58L1492,-30Z" fill="#e588b0" stroke="#e588b0" stroke-width="1.51"/><path d="M1204,-257L1300,-199L1431,-248Z" fill="#ef99c0" stroke="#ef99c0" stroke-width="1.51"/><path d="M1290,-116L1350,135L1456,58Z" fill="#e886ae" stroke="#e886ae" stroke-width="1.51"/><path d="M1341,535L1433,637L1437,569Z" fill="#dc4395" stroke="#dc4395" stroke-width="1.51"/><path d="M1380,233L1368,370L1441,287Z" fill="#e26da2" stroke="#e26da2" stroke-width="1.51"/><path d="M1341,535L1302,696L1433,637Z" fill="#dd4096" stroke="#dd4096" stroke-width="1.51"/><path d="M1290,-116L1203,-84L1350,135Z" fill="#ef8eb5" stroke="#ef8eb5" stroke-width="1.51"/><path d="M1203,-84L1214,139L1350,135Z" fill="#f089b0" stroke="#f089b0" stroke-width="1.51"/><path d="M1234,270L1368,370L1380,233Z" fill="#e871a4" stroke="#e871a4" stroke-width="1.51"/><path d="M1359,1095L1205,1150L1389,1234Z" fill="#a71885" stroke="#a71885" stroke-width="1.51"/><path d="M1205,1150L1207,1345L1389,1234Z" fill="#a11984" stroke="#a11984" stroke-width="1.51"/><path d="M1302,696L1160,810L1351,892Z" fill="#d62f93" stroke="#d62f93" stroke-width="1.51"/><path d="M1133,392L1341,535L1368,370Z" fill="#ea60a0" stroke="#ea60a0" stroke-width="1.51"/><path d="M1350,135L1234,270L1380,233Z" fill="#e979a7" stroke="#e979a7" stroke-width="1.51"/><path d="M1214,139L1234,270L1350,135Z" fill="#ee7faa" stroke="#ee7faa" stroke-width="1.51"/><path d="M1151,964L1350,1021L1351,892Z" fill="#c21e89" stroke="#c21e89" stroke-width="1.51"/><path d="M1234,270L1133,392L1368,370Z" fill="#ed6fa6" stroke="#ed6fa6" stroke-width="1.51"/><path d="M114,-258L386,-216L561,-230Z" fill="#fedbd7" stroke="#fedbd7" stroke-width="1.51"/><path d="M1216,688L1302,696L1341,535Z" fill="#e24299" stroke="#e24299" stroke-width="1.51"/><path d="M1350,1021L1205,1150L1359,1095Z" fill="#b11a86" stroke="#b11a86" stroke-width="1.51"/><path d="M1139,569L1216,688L1341,535Z" fill="#e84b9b" stroke="#e84b9b" stroke-width="1.51"/><path d="M1133,392L1139,569L1341,535Z" fill="#ed5b9f" stroke="#ed5b9f" stroke-width="1.51"/><path d="M1151,964L1205,1150L1350,1021Z" fill="#bb2189" stroke="#bb2189" stroke-width="1.51"/><path d="M1160,810L1151,964L1351,892Z" fill="#ce2b8f" stroke="#ce2b8f" stroke-width="1.51"/><path d="M1216,688L1160,810L1302,696Z" fill="#e03a98" stroke="#e03a98" stroke-width="1.51"/><path d="M1203,-84L1290,-116L1300,-199Z" fill="#f296bd" stroke="#f296bd" stroke-width="1.51"/><path d="M1204,-257L1203,-84L1300,-199Z" fill="#f39abf" stroke="#f39abf" stroke-width="1.51"/><path d="M1045,-245L1203,-84L1204,-257Z" fill="#f7a1c1" stroke="#f7a1c1" stroke-width="1.51"/><path d="M1151,964L1054,1112L1205,1150Z" fill="#bb2c8b" stroke="#bb2c8b" stroke-width="1.51"/><path d="M1205,1150L1033,1322L1207,1345Z" fill="#a32686" stroke="#a32686" stroke-width="1.51"/><path d="M1203,-84L1041,-27L1214,139Z" fill="#f494b6" stroke="#f494b6" stroke-width="1.51"/><path d="M1041,-27L1034,96L1214,139Z" fill="#f694b2" stroke="#f694b2" stroke-width="1.51"/><path d="M1214,139L1019,244L1234,270Z" fill="#f283ab" stroke="#f283ab" stroke-width="1.51"/><path d="M1019,244L1087,340L1234,270Z" fill="#f47faa" stroke="#f47faa" stroke-width="1.51"/><path d="M1087,340L1133,392L1234,270Z" fill="#f177a8" stroke="#f177a8" stroke-width="1.51"/><path d="M561,-230L701,-200L933,-242Z" fill="#ffc2ce" stroke="#ffc2ce" stroke-width="1.51"/><path d="M1054,1112L1033,1322L1205,1150Z" fill="#ae2d89" stroke="#ae2d89" stroke-width="1.51"/><path d="M1034,96L1019,244L1214,139Z" fill="#f68dae" stroke="#f68dae" stroke-width="1.51"/><path d="M1036,705L1160,810L1216,688Z" fill="#e4429a" stroke="#e4429a" stroke-width="1.51"/><path d="M1139,569L1036,705L1216,688Z" fill="#e84d9b" stroke="#e84d9b" stroke-width="1.51"/><path d="M1045,-245L1041,-27L1203,-84Z" fill="#f8a0bf" stroke="#f8a0bf" stroke-width="1.51"/><path d="M1133,392L1013,513L1139,569Z" fill="#f265a2" stroke="#f265a2" stroke-width="1.51"/><path d="M979,956L1054,1112L1151,964Z" fill="#c6358d" stroke="#c6358d" stroke-width="1.51"/><path d="M1024,792L979,956L1151,964Z" fill="#d43c91" stroke="#d43c91" stroke-width="1.51"/><path d="M1024,792L1151,964L1160,810Z" fill="#d73a93" stroke="#d73a93" stroke-width="1.51"/><path d="M1036,705L1024,792L1160,810Z" fill="#e34499" stroke="#e34499" stroke-width="1.51"/><path d="M1013,513L1036,705L1139,569Z" fill="#ef5a9e" stroke="#ef5a9e" stroke-width="1.51"/><path d="M1087,340L1013,513L1133,392Z" fill="#f372a5" stroke="#f372a5" stroke-width="1.51"/><path d="M1013,513L909,595L1036,705Z" fill="#f25f9f" stroke="#f25f9f" stroke-width="1.51"/><path d="M933,-242L885,-50L1041,-27Z" fill="#fda9c0" stroke="#fda9c0" stroke-width="1.51"/><path d="M933,-242L1041,-27L1045,-245Z" fill="#fca9c2" stroke="#fca9c2" stroke-width="1.51"/><path d="M888,1139L1033,1322L1054,1112Z" fill="#b3378b" stroke="#b3378b" stroke-width="1.51"/><path d="M916,396L1013,513L1087,340Z" fill="#f676a6" stroke="#f676a6" stroke-width="1.51"/><path d="M1019,244L926,289L1087,340Z" fill="#f885ab" stroke="#f885ab" stroke-width="1.51"/><path d="M926,289L916,396L1087,340Z" fill="#f983aa" stroke="#f983aa" stroke-width="1.51"/><path d="M893,823L979,956L1024,792Z" fill="#dd4796" stroke="#dd4796" stroke-width="1.51"/><path d="M888,1139L886,1320L1033,1322Z" fill="#ac3a8a" stroke="#ac3a8a" stroke-width="1.51"/><path d="M897,81L1019,244L1034,96Z" fill="#fa96af" stroke="#fa96af" stroke-width="1.51"/><path d="M897,81L1034,96L1041,-27Z" fill="#fb9cb5" stroke="#fb9cb5" stroke-width="1.51"/><path d="M979,956L888,1139L1054,1112Z" fill="#c33c8e" stroke="#c33c8e" stroke-width="1.51"/><path d="M885,-50L897,81L1041,-27Z" fill="#fca4ba" stroke="#fca4ba" stroke-width="1.51"/><path d="M909,595L870,662L1036,705Z" fill="#f05d9f" stroke="#f05d9f" stroke-width="1.51"/><path d="M893,823L1024,792L1036,705Z" fill="#e64c9a" stroke="#e64c9a" stroke-width="1.51"/><path d="M897,81L926,289L1019,244Z" fill="#fb93af" stroke="#fb93af" stroke-width="1.51"/><path d="M870,662L893,823L1036,705Z" fill="#eb559e" stroke="#eb559e" stroke-width="1.51"/><path d="M861,941L888,1139L979,956Z" fill="#cb4490" stroke="#cb4490" stroke-width="1.51"/><path d="M916,396L909,595L1013,513Z" fill="#f86fa3" stroke="#f86fa3" stroke-width="1.51"/><path d="M897,81L776,262L926,289Z" fill="#fa99b1" stroke="#fa99b1" stroke-width="1.51"/><path d="M893,823L861,941L979,956Z" fill="#d84a94" stroke="#d84a94" stroke-width="1.51"/><path d="M394,1287L233,1318L585,1312Z" fill="#aa6596" stroke="#aa6596" stroke-width="1.51"/><path d="M861,941L788,1099L888,1139Z" fill="#c64a92" stroke="#c64a92" stroke-width="1.51"/><path d="M723,519L909,595L916,396Z" fill="#f979a7" stroke="#f979a7" stroke-width="1.51"/><path d="M776,262L916,396L926,289Z" fill="#f98eae" stroke="#f98eae" stroke-width="1.51"/><path d="M701,-200L885,-50L933,-242Z" fill="#feb6c7" stroke="#feb6c7" stroke-width="1.51"/><path d="M885,-50L791,46L897,81Z" fill="#fda8bb" stroke="#fda8bb" stroke-width="1.51"/><path d="M701,-200L771,-25L885,-50Z" fill="#fdb6c5" stroke="#fdb6c5" stroke-width="1.51"/><path d="M788,1099L708,1332L886,1320Z" fill="#ae498f" stroke="#ae498f" stroke-width="1.51"/><path d="M788,1099L886,1320L888,1139Z" fill="#b6468f" stroke="#b6468f" stroke-width="1.51"/><path d="M870,662L767,858L893,823Z" fill="#e75b9e" stroke="#e75b9e" stroke-width="1.51"/><path d="M791,46L776,262L897,81Z" fill="#fba5b5" stroke="#fba5b5" stroke-width="1.51"/><path d="M776,262L692,436L916,396Z" fill="#fa90af" stroke="#fa90af" stroke-width="1.51"/><path d="M692,436L723,519L916,396Z" fill="#f986ab" stroke="#f986ab" stroke-width="1.51"/><path d="M767,858L861,941L893,823Z" fill="#dd5498" stroke="#dd5498" stroke-width="1.51"/><path d="M723,519L870,662L909,595Z" fill="#f56fa4" stroke="#f56fa4" stroke-width="1.51"/><path d="M764,940L788,1099L861,941Z" fill="#cf5194" stroke="#cf5194" stroke-width="1.51"/><path d="M686,671L767,858L870,662Z" fill="#ed66a3" stroke="#ed66a3" stroke-width="1.51"/><path d="M771,-25L791,46L885,-50Z" fill="#fdafbf" stroke="#fdafbf" stroke-width="1.51"/><path d="M767,858L764,940L861,941Z" fill="#d85698" stroke="#d85698" stroke-width="1.51"/><path d="M723,519L686,671L870,662Z" fill="#f374a6" stroke="#f374a6" stroke-width="1.51"/><path d="M19,1294L-201,1329L233,1318Z" fill="#aa76a6" stroke="#aa76a6" stroke-width="1.51"/><path d="M686,671L617,802L767,858Z" fill="#e96aa3" stroke="#e96aa3" stroke-width="1.51"/><path d="M701,-200L604,-32L771,-25Z" fill="#fdbec8" stroke="#fdbec8" stroke-width="1.51"/><path d="M553,1191L708,1332L788,1099Z" fill="#b45594" stroke="#b45594" stroke-width="1.51"/><path d="M764,940L609,970L788,1099Z" fill="#ce5997" stroke="#ce5997" stroke-width="1.51"/><path d="M571,62L611,208L791,46Z" fill="#fbb4bc" stroke="#fbb4bc" stroke-width="1.51"/><path d="M771,-25L604,-32L791,46Z" fill="#fdb6c1" stroke="#fdb6c1" stroke-width="1.51"/><path d="M604,-32L571,62L791,46Z" fill="#fcb9c1" stroke="#fcb9c1" stroke-width="1.51"/><path d="M611,208L776,262L791,46Z" fill="#fba9b8" stroke="#fba9b8" stroke-width="1.51"/><path d="M611,208L692,436L776,262Z" fill="#fa9fb5" stroke="#fa9fb5" stroke-width="1.51"/><path d="M609,970L553,1191L788,1099Z" fill="#c35c97" stroke="#c35c97" stroke-width="1.51"/><path d="M553,1191L585,1312L708,1332Z" fill="#ac5893" stroke="#ac5893" stroke-width="1.51"/><path d="M609,970L764,940L767,858Z" fill="#d85d9a" stroke="#d85d9a" stroke-width="1.51"/><path d="M617,802L609,970L767,858Z" fill="#dd659e" stroke="#dd659e" stroke-width="1.51"/><path d="M611,208L532,444L692,436Z" fill="#fa9fb4" stroke="#fa9fb4" stroke-width="1.51"/><path d="M692,436L607,519L723,519Z" fill="#f98aad" stroke="#f98aad" stroke-width="1.51"/><path d="M607,519L686,671L723,519Z" fill="#f781aa" stroke="#f781aa" stroke-width="1.51"/><path d="M607,519L540,664L686,671Z" fill="#f480aa" stroke="#f480aa" stroke-width="1.51"/><path d="M561,-230L604,-32L701,-200Z" fill="#fdc6cd" stroke="#fdc6cd" stroke-width="1.51"/><path d="M452,285L532,444L611,208Z" fill="#fba9b8" stroke="#fba9b8" stroke-width="1.51"/><path d="M540,664L617,802L686,671Z" fill="#ef77a8" stroke="#ef77a8" stroke-width="1.51"/><path d="M532,444L607,519L692,436Z" fill="#fa92af" stroke="#fa92af" stroke-width="1.51"/><path d="M445,1031L426,1128L553,1191Z" fill="#c1689a" stroke="#c1689a" stroke-width="1.51"/><path d="M561,-230L470,-106L604,-32Z" fill="#fdcacd" stroke="#fdcacd" stroke-width="1.51"/><path d="M445,1031L553,1191L609,970Z" fill="#c7659a" stroke="#c7659a" stroke-width="1.51"/><path d="M571,62L420,90L611,208Z" fill="#fcbbbe" stroke="#fcbbbe" stroke-width="1.51"/><path d="M440,830L609,970L617,802Z" fill="#df6ea1" stroke="#df6ea1" stroke-width="1.51"/><path d="M540,664L440,830L617,802Z" fill="#ec77a8" stroke="#ec77a8" stroke-width="1.51"/><path d="M385,552L540,664L607,519Z" fill="#f88bac" stroke="#f88bac" stroke-width="1.51"/><path d="M532,444L385,552L607,519Z" fill="#fa93af" stroke="#fa93af" stroke-width="1.51"/><path d="M440,830L445,1031L609,970Z" fill="#d76d9d" stroke="#d76d9d" stroke-width="1.51"/><path d="M420,90L452,285L611,208Z" fill="#fcb7bc" stroke="#fcb7bc" stroke-width="1.51"/><path d="M420,711L440,830L540,664Z" fill="#ef7faa" stroke="#ef7faa" stroke-width="1.51"/><path d="M470,-106L571,62L604,-32Z" fill="#fdc3c7" stroke="#fdc3c7" stroke-width="1.51"/><path d="M470,-106L420,90L571,62Z" fill="#fcc5c5" stroke="#fcc5c5" stroke-width="1.51"/><path d="M553,1191L394,1287L585,1312Z" fill="#ae5f95" stroke="#ae5f95" stroke-width="1.51"/><path d="M-218,-211L-26,-219L114,-258Z" fill="#ffece9" stroke="#ffece9" stroke-width="1.51"/><path d="M452,285L399,391L532,444Z" fill="#fba7b7" stroke="#fba7b7" stroke-width="1.51"/><path d="M386,-216L470,-106L561,-230Z" fill="#fed2d2" stroke="#fed2d2" stroke-width="1.51"/><path d="M426,1128L394,1287L553,1191Z" fill="#b66598" stroke="#b66598" stroke-width="1.51"/><path d="M385,552L420,711L540,664Z" fill="#f589ad" stroke="#f589ad" stroke-width="1.51"/><path d="M440,830L340,887L445,1031Z" fill="#db75a0" stroke="#db75a0" stroke-width="1.51"/><path d="M399,391L385,552L532,444Z" fill="#fb9db2" stroke="#fb9db2" stroke-width="1.51"/><path d="M114,-258L284,-184L386,-216Z" fill="#fedfda" stroke="#fedfda" stroke-width="1.51"/><path d="M420,90L281,255L452,285Z" fill="#fcbcbe" stroke="#fcbcbe" stroke-width="1.51"/><path d="M386,-216L298,-114L470,-106Z" fill="#fdd5d1" stroke="#fdd5d1" stroke-width="1.51"/><path d="M324,62L420,90L470,-106Z" fill="#fdcac7" stroke="#fdcac7" stroke-width="1.51"/><path d="M298,-114L324,62L470,-106Z" fill="#fdd1cc" stroke="#fdd1cc" stroke-width="1.51"/><path d="M324,62L281,255L420,90Z" fill="#fcc6c1" stroke="#fcc6c1" stroke-width="1.51"/><path d="M340,887L271,935L445,1031Z" fill="#d7769f" stroke="#d7769f" stroke-width="1.51"/><path d="M281,255L399,391L452,285Z" fill="#fbb3bb" stroke="#fbb3bb" stroke-width="1.51"/><path d="M385,552L289,709L420,711Z" fill="#f48dae" stroke="#f48dae" stroke-width="1.51"/><path d="M420,711L289,709L440,830Z" fill="#ee83ab" stroke="#ee83ab" stroke-width="1.51"/><path d="M289,709L340,887L440,830Z" fill="#e880a8" stroke="#e880a8" stroke-width="1.51"/><path d="M241,1097L426,1128L445,1031Z" fill="#c6709d" stroke="#c6709d" stroke-width="1.51"/><path d="M271,935L241,1097L445,1031Z" fill="#ce75a0" stroke="#ce75a0" stroke-width="1.51"/><path d="M241,1097L394,1287L426,1128Z" fill="#ba6d9c" stroke="#ba6d9c" stroke-width="1.51"/><path d="M259,440L385,552L399,391Z" fill="#fca3b5" stroke="#fca3b5" stroke-width="1.51"/><path d="M241,1097L233,1318L394,1287Z" fill="#b36d9d" stroke="#b36d9d" stroke-width="1.51"/><path d="M254,531L289,709L385,552Z" fill="#f896b1" stroke="#f896b1" stroke-width="1.51"/><path d="M259,440L254,531L385,552Z" fill="#fca0b5" stroke="#fca0b5" stroke-width="1.51"/><path d="M284,-184L298,-114L386,-216Z" fill="#fdd9d5" stroke="#fdd9d5" stroke-width="1.51"/><path d="M281,255L259,440L399,391Z" fill="#fcb1bb" stroke="#fcb1bb" stroke-width="1.51"/><path d="M166,1167L233,1318L241,1097Z" fill="#b872a2" stroke="#b872a2" stroke-width="1.51"/><path d="M91,1282L19,1294L233,1318Z" fill="#ac72a3" stroke="#ac72a3" stroke-width="1.51"/><path d="M102,853L271,935L289,709Z" fill="#e685ac" stroke="#e685ac" stroke-width="1.51"/><path d="M163,137L281,255L324,62Z" fill="#fdc8c4" stroke="#fdc8c4" stroke-width="1.51"/><path d="M298,-114L177,-64L324,62Z" fill="#fdd4d0" stroke="#fdd4d0" stroke-width="1.51"/><path d="M289,709L271,935L340,887Z" fill="#e480a8" stroke="#e480a8" stroke-width="1.51"/><path d="M169,978L241,1097L271,935Z" fill="#d17aa4" stroke="#d17aa4" stroke-width="1.51"/><path d="M180,254L259,440L281,255Z" fill="#fcb9c1" stroke="#fcb9c1" stroke-width="1.51"/><path d="M254,531L145,673L289,709Z" fill="#f796b4" stroke="#f796b4" stroke-width="1.51"/><path d="M177,-64L163,137L324,62Z" fill="#fdd1cc" stroke="#fdd1cc" stroke-width="1.51"/><path d="M166,543L145,673L254,531Z" fill="#fa9db8" stroke="#fa9db8" stroke-width="1.51"/><path d="M180,254L100,397L259,440Z" fill="#fcb7c1" stroke="#fcb7c1" stroke-width="1.51"/><path d="M163,137L180,254L281,255Z" fill="#fcc4c5" stroke="#fcc4c5" stroke-width="1.51"/><path d="M145,673L102,853L289,709Z" fill="#f08db4" stroke="#f08db4" stroke-width="1.51"/><path d="M284,-184L177,-64L298,-114Z" fill="#fedad5" stroke="#fedad5" stroke-width="1.51"/><path d="M102,853L169,978L271,935Z" fill="#dc80a9" stroke="#dc80a9" stroke-width="1.51"/><path d="M114,-258L177,-64L284,-184Z" fill="#fedfdb" stroke="#fedfdb" stroke-width="1.51"/><path d="M166,543L254,531L259,440Z" fill="#fca4b8" stroke="#fca4b8" stroke-width="1.51"/><path d="M166,1167L91,1282L233,1318Z" fill="#b172a2" stroke="#b172a2" stroke-width="1.51"/><path d="M100,397L166,543L259,440Z" fill="#fdacbd" stroke="#fdacbd" stroke-width="1.51"/><path d="M169,978L166,1167L241,1097Z" fill="#c778a5" stroke="#c778a5" stroke-width="1.51"/><path d="M-8,702L102,853L145,673Z" fill="#f192b9" stroke="#f192b9" stroke-width="1.51"/><path d="M17,583L145,673L166,543Z" fill="#fa9fbb" stroke="#fa9fbb" stroke-width="1.51"/><path d="M32,1104L166,1167L169,978Z" fill="#c77ba8" stroke="#c77ba8" stroke-width="1.51"/><path d="M114,-258L-26,-219L177,-64Z" fill="#fee4e1" stroke="#fee4e1" stroke-width="1.51"/><path d="M-26,-219L-38,-31L177,-64Z" fill="#fde3df" stroke="#fde3df" stroke-width="1.51"/><path d="M-13,70L163,137L177,-64Z" fill="#fdd6d1" stroke="#fdd6d1" stroke-width="1.51"/><path d="M-38,-31L-13,70L177,-64Z" fill="#fddcd8" stroke="#fddcd8" stroke-width="1.51"/><path d="M163,137L-51,216L180,254Z" fill="#fdcaca" stroke="#fdcaca" stroke-width="1.51"/><path d="M-51,216L100,397L180,254Z" fill="#fdc3c9" stroke="#fdc3c9" stroke-width="1.51"/><path d="M100,397L17,583L166,543Z" fill="#fda9bf" stroke="#fda9bf" stroke-width="1.51"/><path d="M102,853L34,855L169,978Z" fill="#e086af" stroke="#e086af" stroke-width="1.51"/><path d="M34,855L-32,953L169,978Z" fill="#dc85ae" stroke="#dc85ae" stroke-width="1.51"/><path d="M-32,953L32,1104L169,978Z" fill="#d181ac" stroke="#d181ac" stroke-width="1.51"/><path d="M-13,70L-51,216L163,137Z" fill="#fdd3cf" stroke="#fdd3cf" stroke-width="1.51"/><path d="M32,1104L91,1282L166,1167Z" fill="#ba78a7" stroke="#ba78a7" stroke-width="1.51"/><path d="M-51,216L-30,384L100,397Z" fill="#fdc2cb" stroke="#fdc2cb" stroke-width="1.51"/><path d="M-8,702L34,855L102,853Z" fill="#eb8fb7" stroke="#eb8fb7" stroke-width="1.51"/><path d="M17,583L-8,702L145,673Z" fill="#f79dbd" stroke="#f79dbd" stroke-width="1.51"/><path d="M32,1104L19,1294L91,1282Z" fill="#b578a8" stroke="#b578a8" stroke-width="1.51"/><path d="M-30,384L17,583L100,397Z" fill="#fdb2c4" stroke="#fdb2c4" stroke-width="1.51"/><path d="M-30,384L-113,415L17,583Z" fill="#feb5c6" stroke="#feb5c6" stroke-width="1.51"/><path d="M-113,415L-159,536L17,583Z" fill="#ffb0c5" stroke="#ffb0c5" stroke-width="1.51"/><path d="M-32,953L-119,1030L32,1104Z" fill="#d084af" stroke="#d084af" stroke-width="1.51"/><path d="M-155,1190L19,1294L32,1104Z" fill="#b97dac" stroke="#b97dac" stroke-width="1.51"/><path d="M-119,1030L-155,1190L32,1104Z" fill="#c583af" stroke="#c583af" stroke-width="1.51"/><path d="M-185,795L-32,953L34,855Z" fill="#e48fb6" stroke="#e48fb6" stroke-width="1.51"/><path d="M-139,727L-185,795L34,855Z" fill="#ed96bc" stroke="#ed96bc" stroke-width="1.51"/><path d="M-8,702L-139,727L34,855Z" fill="#f196bc" stroke="#f196bc" stroke-width="1.51"/><path d="M-159,536L-139,727L-8,702Z" fill="#f8a2c1" stroke="#f8a2c1" stroke-width="1.51"/><path d="M-159,536L-8,702L17,583Z" fill="#faa5c1" stroke="#faa5c1" stroke-width="1.51"/><path d="M-155,1190L-201,1329L19,1294Z" fill="#b07cac" stroke="#b07cac" stroke-width="1.51"/><path d="M-218,-211L-180,-7L-38,-31Z" fill="#fee8e4" stroke="#fee8e4" stroke-width="1.51"/><path d="M-51,216L-113,415L-30,384Z" fill="#fec4cd" stroke="#fec4cd" stroke-width="1.51"/><path d="M-218,-211L-38,-31L-26,-219Z" fill="#feeae6" stroke="#feeae6" stroke-width="1.51"/><path d="M-204,99L-51,216L-13,70Z" fill="#fed8d4" stroke="#fed8d4" stroke-width="1.51"/><path d="M-38,-31L-180,-7L-13,70Z" fill="#fedfdb" stroke="#fedfdb" stroke-width="1.51"/><path d="M-180,-7L-204,99L-13,70Z" fill="#fedfda" stroke="#fedfda" stroke-width="1.51"/><path d="M-204,99L-202,199L-51,216Z" fill="#fed7d5" stroke="#fed7d5" stroke-width="1.51"/><path d="M-202,199L-113,415L-51,216Z" fill="#feccd1" stroke="#feccd1" stroke-width="1.51"/><path d="M-185,795L-119,1030L-32,953Z" fill="#de8cb4" stroke="#de8cb4" stroke-width="1.51"/><path d="M-202,199L-159,536L-113,415Z" fill="#ffc3ce" stroke="#ffc3ce" stroke-width="1.51"/><path d="M-185,795L-155,1190L-119,1030Z" fill="#d489b3" stroke="#d489b3" stroke-width="1.51"/><path d="M-159,536L-185,795L-139,727Z" fill="#f7a2c3" stroke="#f7a2c3" stroke-width="1.51"/><path d="M-185,795L-201,1329L-155,1190Z" fill="#c686b3" stroke="#c686b3" stroke-width="1.51"/><path d="M-202,199L-185,795L-159,536Z" fill="#ffb5c9" stroke="#ffb5c9" stroke-width="1.51"/><path d="M-218,-211L-204,99L-180,-7Z" fill="#fee7e3" stroke="#fee7e3" stroke-width="1.51"/><path d="M-202,199L-201,1329L-185,795Z" fill="#f19bc1" stroke="#f19bc1" stroke-width="1.51"/><path d="M-202,199L-218,-211L-201,1329Z" fill="#ffbdcd" stroke="#ffbdcd" stroke-width="1.51"/><path d="M-204,99L-218,-211L-202,199Z" fill="#fee3df" stroke="#fee3df" stroke-width="1.51"/></svg>
